<svg width="37" height="37" viewBox="0 0 37 37" fill="none" xmlns="http://www.w3.org/2000/svg">
<path d="M36.3828 1.96875C36.3828 2.23437 36.3047 2.48438 36.1484 2.71875C36.0078 2.9375 35.8047 3.08594 35.5391 3.16406C34.9922 3.30469 34.4531 3.4375 33.9219 3.5625C33.3906 3.67188 32.8516 3.76563 32.3047 3.84375C32.7109 6.3125 32.9922 8.71094 33.1484 11.0391C33.3203 13.3672 33.4062 15.6719 33.4062 17.9531C33.4062 21.0469 33.2812 24.0312 33.0312 26.9062C32.7969 29.7812 32.5078 32.6016 32.1641 35.3672C32.0703 35.7109 31.9062 35.9688 31.6719 36.1406C31.4531 36.3281 31.2031 36.4219 30.9219 36.4219C30.3906 36.4219 30.0234 36.1719 29.8203 35.6719C29.3828 34.6094 28.7812 33.3047 28.0156 31.7578C27.2656 30.1953 26.4141 28.5234 25.4609 26.7422C24.5234 24.9453 23.5234 23.0859 22.4609 21.1641C21.4141 19.2422 20.3828 17.3828 19.3672 15.5859C18.3672 13.7891 17.4219 12.1094 16.5312 10.5469C15.6406 8.96875 14.8828 7.63281 14.2578 6.53906L13.5547 33.7031C14.1484 33.75 14.75 33.7969 15.3594 33.8438C15.9844 33.8906 16.6094 33.9375 17.2344 33.9844C17.5469 34.0312 17.8047 34.1719 18.0078 34.4062C18.2266 34.6406 18.3359 34.9141 18.3359 35.2266C18.3359 35.5859 18.2031 35.875 17.9375 36.0938C17.6719 36.3125 17.3906 36.4219 17.0938 36.4219H17C15.75 36.2969 14.5 36.2031 13.25 36.1406C12.0156 36.0781 10.7734 36.0469 9.52344 36.0469C8.28906 36.0469 7.0625 36.0781 5.84375 36.1406C4.64062 36.2031 3.42969 36.2969 2.21094 36.4219H2.11719C1.77344 36.4219 1.47656 36.2969 1.22656 36.0469C0.992188 35.8125 0.875 35.5391 0.875 35.2266C0.875 34.9141 0.976562 34.6406 1.17969 34.4062C1.39844 34.1719 1.66406 34.0312 1.97656 33.9844C2.55469 33.9375 3.13281 33.8906 3.71094 33.8438C4.30469 33.7969 4.89062 33.75 5.46875 33.7031L6.00781 4.125C4.66406 4.03125 3.30469 3.89062 1.92969 3.70312C1.61719 3.65625 1.35938 3.51562 1.15625 3.28125C0.96875 3.03125 0.875 2.75 0.875 2.4375C0.875 2.0625 1.01562 1.77344 1.29688 1.57031C1.57812 1.35156 1.85156 1.24219 2.11719 1.24219H2.25781C3.92969 1.46094 5.5625 1.63281 7.15625 1.75781C8.76562 1.86719 10.3672 1.92188 11.9609 1.92188H13.6953C13.7109 1.92188 13.7578 1.92969 13.8359 1.94531C13.9141 1.94531 14 1.96094 14.0938 1.99219C14.2031 2.02344 14.3125 2.07813 14.4219 2.15625C14.5469 2.23437 14.6562 2.34375 14.75 2.48438C14.8125 2.59375 15.0156 2.94531 15.3594 3.53906C15.7031 4.13281 16.1484 4.90625 16.6953 5.85938C17.2422 6.8125 17.8672 7.91406 18.5703 9.16406C19.2891 10.4141 20.0469 11.75 20.8438 13.1719C21.6562 14.5938 22.4844 16.0703 23.3281 17.6016C24.1719 19.1328 25 20.6641 25.8125 22.1953C26.6406 23.7109 27.4297 25.1953 28.1797 26.6484C28.9453 28.0859 29.6328 29.4297 30.2422 30.6797C30.4453 28.6328 30.6172 26.5547 30.7578 24.4453C30.8984 22.3359 30.9688 20.1719 30.9688 17.9531C30.9688 15.7344 30.8828 13.4688 30.7109 11.1562C30.5391 8.84375 30.2578 6.46875 29.8672 4.03125C29.6641 4.0625 29.4688 4.07812 29.2812 4.07812C29.0938 4.07812 28.8906 4.07812 28.6719 4.07812C27.75 4.07812 26.7891 4.03125 25.7891 3.9375C25.4766 3.90625 25.2109 3.77344 24.9922 3.53906C24.7891 3.28906 24.6875 3.00781 24.6875 2.69531C24.6875 2.35156 24.8125 2.0625 25.0625 1.82812C25.3281 1.59375 25.6172 1.47656 25.9297 1.47656H26.0703C26.5078 1.53906 26.9375 1.58594 27.3594 1.61719C27.7969 1.63281 28.2344 1.64062 28.6719 1.64062C29.75 1.64062 30.8047 1.57031 31.8359 1.42969C32.8672 1.28906 33.875 1.08594 34.8594 0.820312C34.9219 0.789063 35.0312 0.773438 35.1875 0.773438C35.5312 0.773438 35.8125 0.898437 36.0312 1.14844C36.2656 1.38281 36.3828 1.65625 36.3828 1.96875Z" fill="white"/>
</svg>
