<svg width="65" height="39" viewBox="0 0 65 39" fill="none" xmlns="http://www.w3.org/2000/svg">
<g filter="url(#filter0_i_150_2772)">
<rect x="7.79541" y="3.77832" width="50" height="26" fill="#2D3A49"/>
<rect x="8.29541" y="4.27832" width="49" height="25" stroke="white" stroke-linecap="square" stroke-dasharray="1 64"/>
<g filter="url(#filter1_d_150_2772)">
<path d="M15.871 11.8252L18.455 16.8223L21.0458 11.8252H22.5429L19.1112 18.0596V21.7783H17.7919V18.0596L14.3603 11.8252H15.871ZM24.8638 14.3818V21.7783H23.5923V14.3818H24.8638ZM23.4966 12.4199C23.4966 12.2148 23.5581 12.0417 23.6812 11.9004C23.8088 11.7591 23.9956 11.6885 24.2417 11.6885C24.4833 11.6885 24.6678 11.7591 24.7954 11.9004C24.9276 12.0417 24.9937 12.2148 24.9937 12.4199C24.9937 12.6159 24.9276 12.7845 24.7954 12.9258C24.6678 13.0625 24.4833 13.1309 24.2417 13.1309C23.9956 13.1309 23.8088 13.0625 23.6812 12.9258C23.5581 12.7845 23.4966 12.6159 23.4966 12.4199ZM29.8234 21.915C29.3084 21.915 28.8413 21.8285 28.4221 21.6553C28.0073 21.4775 27.6496 21.2292 27.3488 20.9102C27.0526 20.5911 26.8247 20.2129 26.6652 19.7754C26.5057 19.3379 26.426 18.8594 26.426 18.3398V18.0527C26.426 17.4512 26.5148 16.9157 26.6926 16.4463C26.8703 15.9723 27.1118 15.5713 27.4172 15.2432C27.7225 14.915 28.0689 14.6667 28.4562 14.498C28.8436 14.3294 29.2446 14.2451 29.6594 14.2451C30.188 14.2451 30.6437 14.3363 31.0265 14.5186C31.4139 14.7008 31.7306 14.9561 31.9767 15.2842C32.2228 15.6077 32.4051 15.9906 32.5236 16.4326C32.6421 16.8701 32.7013 17.3486 32.7013 17.8682V18.4355H27.1779V17.4033H31.4367V17.3076C31.4185 16.9795 31.3501 16.6605 31.2316 16.3506C31.1177 16.0407 30.9354 15.7855 30.6847 15.585C30.4341 15.3844 30.0923 15.2842 29.6594 15.2842C29.3722 15.2842 29.1079 15.3457 28.8664 15.4688C28.6249 15.5872 28.4175 15.765 28.2443 16.002C28.0711 16.2389 27.9367 16.5283 27.841 16.8701C27.7453 17.2119 27.6974 17.6061 27.6974 18.0527V18.3398C27.6974 18.6908 27.7453 19.0212 27.841 19.3311C27.9413 19.6364 28.0848 19.9053 28.2717 20.1377C28.4631 20.3701 28.6932 20.5524 28.9621 20.6846C29.2355 20.8167 29.5454 20.8828 29.8918 20.8828C30.3384 20.8828 30.7166 20.7917 31.0265 20.6094C31.3364 20.4271 31.6076 20.1833 31.84 19.8779L32.6056 20.4863C32.4461 20.7279 32.2433 20.958 31.9972 21.1768C31.7512 21.3955 31.4481 21.5732 31.0881 21.71C30.7326 21.8467 30.311 21.915 29.8234 21.915ZM35.4119 11.2783V21.7783H34.1404V11.2783H35.4119ZM41.9643 20.3428V11.2783H43.2358V21.7783H42.0737L41.9643 20.3428ZM36.9878 18.1621V18.0186C36.9878 17.4535 37.0561 16.9408 37.1928 16.4805C37.3341 16.0156 37.5324 15.6169 37.7876 15.2842C38.0473 14.9515 38.3549 14.6963 38.7104 14.5186C39.0704 14.3363 39.4715 14.2451 39.9135 14.2451C40.3784 14.2451 40.784 14.3271 41.1303 14.4912C41.4812 14.6507 41.7775 14.8854 42.019 15.1953C42.2651 15.5007 42.4588 15.8698 42.6001 16.3027C42.7413 16.7357 42.8393 17.2256 42.894 17.7725V18.4014C42.8439 18.9437 42.7459 19.4313 42.6001 19.8643C42.4588 20.2972 42.2651 20.6663 42.019 20.9717C41.7775 21.277 41.4812 21.5117 41.1303 21.6758C40.7794 21.8353 40.3693 21.915 39.8999 21.915C39.4669 21.915 39.0704 21.8216 38.7104 21.6348C38.3549 21.4479 38.0473 21.1859 37.7876 20.8486C37.5324 20.5114 37.3341 20.1149 37.1928 19.6592C37.0561 19.1989 36.9878 18.6999 36.9878 18.1621ZM38.2592 18.0186V18.1621C38.2592 18.5312 38.2957 18.8776 38.3686 19.2012C38.4461 19.5247 38.5646 19.8096 38.7241 20.0557C38.8836 20.3018 39.0864 20.4954 39.3325 20.6367C39.5786 20.7734 39.8725 20.8418 40.2143 20.8418C40.6336 20.8418 40.9777 20.7529 41.2465 20.5752C41.52 20.3975 41.7387 20.1628 41.9028 19.8711C42.0669 19.5794 42.1945 19.2627 42.2856 18.9209V17.2734C42.2309 17.0228 42.1512 16.7812 42.0463 16.5488C41.9461 16.3118 41.8139 16.1022 41.6499 15.9199C41.4904 15.7331 41.2921 15.585 41.0551 15.4756C40.8227 15.3662 40.547 15.3115 40.228 15.3115C39.8816 15.3115 39.5831 15.3844 39.3325 15.5303C39.0864 15.6715 38.8836 15.8675 38.7241 16.1182C38.5646 16.3643 38.4461 16.6514 38.3686 16.9795C38.2957 17.3031 38.2592 17.6494 38.2592 18.0186ZM49.3712 19.8164C49.3712 19.6341 49.3302 19.4655 49.2481 19.3105C49.1707 19.151 49.0089 19.0075 48.7628 18.8799C48.5213 18.7477 48.1567 18.6338 47.669 18.5381C47.2589 18.4515 46.8875 18.349 46.5548 18.2305C46.2267 18.112 45.9464 17.9684 45.714 17.7998C45.4861 17.6312 45.3106 17.4329 45.1876 17.2051C45.0646 16.9772 45.003 16.7106 45.003 16.4053C45.003 16.1136 45.0668 15.8379 45.1944 15.5781C45.3266 15.3184 45.5112 15.0882 45.7481 14.8877C45.9897 14.6872 46.2791 14.5299 46.6163 14.416C46.9535 14.3021 47.3295 14.2451 47.7442 14.2451C48.3367 14.2451 48.8425 14.3499 49.2618 14.5596C49.6811 14.7692 50.0024 15.0495 50.2257 15.4004C50.449 15.7467 50.5606 16.1318 50.5606 16.5557H49.296C49.296 16.3506 49.2345 16.1523 49.1114 15.9609C48.9929 15.765 48.8175 15.6032 48.5851 15.4756C48.3572 15.348 48.0769 15.2842 47.7442 15.2842C47.3933 15.2842 47.1085 15.3389 46.8897 15.4482C46.6756 15.5531 46.5183 15.6875 46.4181 15.8516C46.3224 16.0156 46.2745 16.1888 46.2745 16.3711C46.2745 16.5078 46.2973 16.6309 46.3429 16.7402C46.393 16.8451 46.4796 16.943 46.6026 17.0342C46.7257 17.1208 46.8989 17.2028 47.1222 17.2803C47.3455 17.3577 47.6303 17.4352 47.9767 17.5127C48.5828 17.6494 49.0818 17.8135 49.4737 18.0049C49.8657 18.1963 50.1573 18.431 50.3487 18.709C50.5401 18.987 50.6358 19.3242 50.6358 19.7207C50.6358 20.0443 50.5675 20.3405 50.4308 20.6094C50.2986 20.8783 50.1049 21.1107 49.8497 21.3066C49.5991 21.498 49.2983 21.6484 48.9474 21.7578C48.601 21.8626 48.2114 21.915 47.7784 21.915C47.1267 21.915 46.5753 21.7988 46.1241 21.5664C45.6729 21.334 45.3312 21.0332 45.0987 20.6641C44.8663 20.2949 44.7501 19.9053 44.7501 19.4951H46.0216C46.0398 19.8415 46.1401 20.1172 46.3224 20.3223C46.5047 20.5228 46.728 20.6663 46.9923 20.7529C47.2566 20.835 47.5187 20.876 47.7784 20.876C48.1248 20.876 48.4142 20.8304 48.6466 20.7393C48.8836 20.6481 49.0636 20.5228 49.1866 20.3633C49.3097 20.2038 49.3712 20.0215 49.3712 19.8164Z" fill="#FFB82F"/>
</g>
</g>
<defs>
<filter id="filter0_i_150_2772" x="7.79541" y="1.77832" width="50" height="28" filterUnits="userSpaceOnUse" color-interpolation-filters="sRGB">
<feFlood flood-opacity="0" result="BackgroundImageFix"/>
<feBlend mode="normal" in="SourceGraphic" in2="BackgroundImageFix" result="shape"/>
<feColorMatrix in="SourceAlpha" type="matrix" values="0 0 0 0 0 0 0 0 0 0 0 0 0 0 0 0 0 0 127 0" result="hardAlpha"/>
<feOffset dy="-2"/>
<feGaussianBlur stdDeviation="1.5"/>
<feComposite in2="hardAlpha" operator="arithmetic" k2="-1" k3="1"/>
<feColorMatrix type="matrix" values="0 0 0 0 0 0 0 0 0 0 0 0 0 0 0 0 0 0 0.44 0"/>
<feBlend mode="normal" in2="shape" result="effect1_innerShadow_150_2772"/>
</filter>
<filter id="filter1_d_150_2772" x="0.96023" y="0.878321" width="63.0756" height="37.4367" filterUnits="userSpaceOnUse" color-interpolation-filters="sRGB">
<feFlood flood-opacity="0" result="BackgroundImageFix"/>
<feColorMatrix in="SourceAlpha" type="matrix" values="0 0 0 0 0 0 0 0 0 0 0 0 0 0 0 0 0 0 127 0" result="hardAlpha"/>
<feOffset dy="3"/>
<feGaussianBlur stdDeviation="6.7"/>
<feComposite in2="hardAlpha" operator="out"/>
<feColorMatrix type="matrix" values="0 0 0 0 0 0 0 0 0 0 0 0 0 0 0 0 0 0 0.85 0"/>
<feBlend mode="normal" in2="BackgroundImageFix" result="effect1_dropShadow_150_2772"/>
<feBlend mode="normal" in="SourceGraphic" in2="effect1_dropShadow_150_2772" result="shape"/>
</filter>
</defs>
</svg>
