<svg width="79" height="37" viewBox="0 0 79 37" fill="none" xmlns="http://www.w3.org/2000/svg">
<g filter="url(#filter0_i_150_2775)">
<rect x="6.5" y="2.45728" width="66" height="26" fill="#2D3A49"/>
<rect x="7" y="2.95728" width="65" height="25" stroke="white" stroke-linecap="square" stroke-dasharray="1 64"/>
<g filter="url(#filter1_d_150_2775)">
<path d="M15.367 10.5042V20.4573H14.0476V10.5042H15.367ZM19.5369 14.9817V16.0618H15.0798V14.9817H19.5369ZM20.2136 10.5042V11.5842H15.0798V10.5042H20.2136ZM24.3734 20.594C23.8585 20.594 23.3913 20.5074 22.9721 20.3342C22.5574 20.1565 22.1996 19.9081 21.8988 19.5891C21.6026 19.2701 21.3747 18.8918 21.2152 18.4543C21.0557 18.0168 20.976 17.5383 20.976 17.0188V16.7317C20.976 16.1301 21.0648 15.5946 21.2426 15.1252C21.4203 14.6513 21.6618 14.2502 21.9672 13.9221C22.2725 13.594 22.6189 13.3456 23.0062 13.177C23.3936 13.0084 23.7947 12.9241 24.2094 12.9241C24.738 12.9241 25.1937 13.0152 25.5766 13.1975C25.9639 13.3798 26.2807 13.635 26.5268 13.9631C26.7729 14.2867 26.9551 14.6695 27.0736 15.1116C27.1921 15.5491 27.2514 16.0276 27.2514 16.5471V17.1145H21.7279V16.0823H25.9867V15.9866C25.9685 15.6584 25.9001 15.3394 25.7816 15.0295C25.6677 14.7196 25.4854 14.4644 25.2348 14.2639C24.9841 14.0634 24.6423 13.9631 24.2094 13.9631C23.9223 13.9631 23.6579 14.0247 23.4164 14.1477C23.1749 14.2662 22.9675 14.4439 22.7943 14.6809C22.6212 14.9179 22.4867 15.2073 22.391 15.5491C22.2953 15.8909 22.2475 16.2851 22.2475 16.7317V17.0188C22.2475 17.3697 22.2953 17.7001 22.391 18.01C22.4913 18.3153 22.6348 18.5842 22.8217 18.8167C23.0131 19.0491 23.2432 19.2314 23.5121 19.3635C23.7855 19.4957 24.0954 19.5618 24.4418 19.5618C24.8884 19.5618 25.2667 19.4706 25.5766 19.2883C25.8865 19.106 26.1576 18.8622 26.39 18.5569L27.1557 19.1653C26.9962 19.4068 26.7934 19.637 26.5473 19.8557C26.3012 20.0745 25.9981 20.2522 25.6381 20.3889C25.2826 20.5256 24.8611 20.594 24.3734 20.594ZM32.9493 19.1926V15.385C32.9493 15.0933 32.89 14.8404 32.7715 14.6262C32.6576 14.4075 32.4844 14.2389 32.252 14.1204C32.0196 14.0019 31.7325 13.9426 31.3907 13.9426C31.0717 13.9426 30.7914 13.9973 30.5498 14.1067C30.3129 14.2161 30.126 14.3596 29.9893 14.5374C29.8571 14.7151 29.7911 14.9065 29.7911 15.1116H28.5264C28.5264 14.8472 28.5948 14.5852 28.7315 14.3254C28.8682 14.0657 29.0642 13.831 29.3194 13.6213C29.5791 13.4071 29.889 13.2385 30.2491 13.1155C30.6136 12.9879 31.0192 12.9241 31.4659 12.9241C32.0036 12.9241 32.4776 13.0152 32.8877 13.1975C33.3024 13.3798 33.626 13.6555 33.8584 14.0247C34.0954 14.3892 34.2139 14.8472 34.2139 15.3987V18.844C34.2139 19.0901 34.2344 19.3521 34.2754 19.6301C34.321 19.9081 34.3871 20.1474 34.4737 20.3479V20.4573H33.1543C33.0905 20.3114 33.0404 20.1178 33.0039 19.8762C32.9675 19.6301 32.9493 19.4023 32.9493 19.1926ZM33.168 15.9729L33.1817 16.8616H31.9034C31.5433 16.8616 31.222 16.8912 30.9395 16.9504C30.6569 17.0051 30.42 17.0894 30.2286 17.2034C30.0371 17.3173 29.8913 17.4609 29.7911 17.634C29.6908 17.8027 29.6407 18.0009 29.6407 18.2288C29.6407 18.4612 29.6931 18.6731 29.7979 18.8645C29.9027 19.0559 30.0599 19.2086 30.2696 19.3225C30.4838 19.4319 30.7458 19.4866 31.0557 19.4866C31.4431 19.4866 31.7849 19.4045 32.0811 19.2405C32.3773 19.0764 32.612 18.8759 32.7852 18.6389C32.9629 18.4019 33.0586 18.1718 33.0723 17.9485L33.6123 18.5569C33.5804 18.7483 33.4939 18.9602 33.3526 19.1926C33.2113 19.425 33.0222 19.6484 32.7852 19.8625C32.5528 20.0722 32.2748 20.2476 31.9512 20.3889C31.6322 20.5256 31.2722 20.594 30.8711 20.594C30.3698 20.594 29.9301 20.496 29.5518 20.3C29.1781 20.1041 28.8864 19.842 28.6768 19.5139C28.4717 19.1812 28.3692 18.8098 28.3692 18.3997C28.3692 18.0032 28.4467 17.6545 28.6016 17.3538C28.7565 17.0484 28.9799 16.7955 29.2715 16.595C29.5632 16.3899 29.9141 16.2349 30.3243 16.1301C30.7344 16.0253 31.1924 15.9729 31.6983 15.9729H33.168ZM39.1598 13.0608V14.0315H35.1608V13.0608H39.1598ZM36.5143 11.2629H37.779V18.6252C37.779 18.8759 37.8177 19.065 37.8952 19.1926C37.9727 19.3202 38.0729 19.4045 38.196 19.4456C38.319 19.4866 38.4512 19.5071 38.5925 19.5071C38.6973 19.5071 38.8067 19.498 38.9206 19.4797C39.0391 19.4569 39.1279 19.4387 39.1872 19.425L39.194 20.4573C39.0938 20.4892 38.9616 20.5188 38.7975 20.5461C38.638 20.578 38.4443 20.594 38.2165 20.594C37.9066 20.594 37.6218 20.5325 37.362 20.4094C37.1022 20.2864 36.8949 20.0813 36.7399 19.7942C36.5895 19.5025 36.5143 19.1106 36.5143 18.6184V11.2629ZM45.0286 18.7483V13.0608H46.3001V20.4573H45.0902L45.0286 18.7483ZM45.2679 17.1897L45.7943 17.176C45.7943 17.6682 45.7418 18.1239 45.637 18.5432C45.5368 18.9579 45.3727 19.318 45.1448 19.6233C44.917 19.9286 44.6185 20.1679 44.2493 20.3411C43.8802 20.5097 43.4313 20.594 42.9027 20.594C42.5426 20.594 42.2122 20.5416 41.9114 20.4368C41.6152 20.3319 41.36 20.1702 41.1458 19.9514C40.9316 19.7327 40.7653 19.4478 40.6468 19.0969C40.5329 18.746 40.4759 18.3245 40.4759 17.8323V13.0608H41.7405V17.8459C41.7405 18.1786 41.777 18.4543 41.8499 18.6731C41.9274 18.8873 42.0299 19.0582 42.1575 19.1858C42.2897 19.3088 42.4355 19.3954 42.595 19.4456C42.7591 19.4957 42.9277 19.5208 43.1009 19.5208C43.6387 19.5208 44.0648 19.4182 44.3792 19.2131C44.6937 19.0035 44.9193 18.7232 45.056 18.3723C45.1973 18.0168 45.2679 17.6226 45.2679 17.1897ZM49.3525 14.2229V20.4573H48.0879V13.0608H49.3183L49.3525 14.2229ZM51.663 13.0198L51.6562 14.1956C51.5514 14.1728 51.4511 14.1591 51.3554 14.1545C51.2643 14.1454 51.1595 14.1409 51.041 14.1409C50.7493 14.1409 50.4918 14.1864 50.2685 14.2776C50.0452 14.3687 49.8561 14.4963 49.7011 14.6604C49.5462 14.8245 49.4231 15.0204 49.332 15.2483C49.2454 15.4716 49.1884 15.7177 49.1611 15.9866L48.8056 16.1917C48.8056 15.745 48.8489 15.3258 48.9355 14.9338C49.0267 14.5419 49.1657 14.1956 49.3525 13.8948C49.5393 13.5894 49.7763 13.3525 50.0634 13.1838C50.3551 13.0107 50.7015 12.9241 51.1025 12.9241C51.1936 12.9241 51.2985 12.9355 51.417 12.9583C51.5354 12.9765 51.6175 12.997 51.663 13.0198ZM55.6246 20.594C55.1096 20.594 54.6425 20.5074 54.2232 20.3342C53.8085 20.1565 53.4508 19.9081 53.15 19.5891C52.8538 19.2701 52.6259 18.8918 52.4664 18.4543C52.3069 18.0168 52.2271 17.5383 52.2271 17.0188V16.7317C52.2271 16.1301 52.316 15.5946 52.4938 15.1252C52.6715 14.6513 52.913 14.2502 53.2184 13.9221C53.5237 13.594 53.8701 13.3456 54.2574 13.177C54.6448 13.0084 55.0458 12.9241 55.4605 12.9241C55.9892 12.9241 56.4449 13.0152 56.8277 13.1975C57.2151 13.3798 57.5318 13.635 57.7779 13.9631C58.024 14.2867 58.2063 14.6695 58.3248 15.1116C58.4433 15.5491 58.5025 16.0276 58.5025 16.5471V17.1145H52.9791V16.0823H57.2379V15.9866C57.2197 15.6584 57.1513 15.3394 57.0328 15.0295C56.9189 14.7196 56.7366 14.4644 56.4859 14.2639C56.2353 14.0634 55.8935 13.9631 55.4605 13.9631C55.1734 13.9631 54.9091 14.0247 54.6676 14.1477C54.426 14.2662 54.2187 14.4439 54.0455 14.6809C53.8723 14.9179 53.7379 15.2073 53.6422 15.5491C53.5465 15.8909 53.4986 16.2851 53.4986 16.7317V17.0188C53.4986 17.3697 53.5465 17.7001 53.6422 18.01C53.7424 18.3153 53.886 18.5842 54.0729 18.8167C54.2643 19.0491 54.4944 19.2314 54.7633 19.3635C55.0367 19.4957 55.3466 19.5618 55.693 19.5618C56.1396 19.5618 56.5178 19.4706 56.8277 19.2883C57.1376 19.106 57.4088 18.8622 57.6412 18.5569L58.4068 19.1653C58.2473 19.4068 58.0445 19.637 57.7984 19.8557C57.5523 20.0745 57.2493 20.2522 56.8893 20.3889C56.5338 20.5256 56.1122 20.594 55.6246 20.594ZM64.1457 18.4954C64.1457 18.3131 64.1047 18.1444 64.0227 17.9895C63.9452 17.83 63.7834 17.6864 63.5373 17.5588C63.2958 17.4267 62.9312 17.3127 62.4436 17.217C62.0334 17.1305 61.662 17.0279 61.3293 16.9094C61.0012 16.7909 60.7209 16.6474 60.4885 16.4788C60.2607 16.3101 60.0852 16.1119 59.9622 15.884C59.8391 15.6562 59.7776 15.3896 59.7776 15.0842C59.7776 14.7926 59.8414 14.5168 59.969 14.2571C60.1011 13.9973 60.2857 13.7672 60.5227 13.5667C60.7642 13.3661 61.0536 13.2089 61.3909 13.095C61.7281 12.981 62.1041 12.9241 62.5188 12.9241C63.1112 12.9241 63.6171 13.0289 64.0364 13.2385C64.4556 13.4482 64.7769 13.7284 65.0002 14.0793C65.2235 14.4257 65.3352 14.8108 65.3352 15.2346H64.0705C64.0705 15.0295 64.009 14.8313 63.886 14.6399C63.7675 14.4439 63.592 14.2821 63.3596 14.1545C63.1317 14.0269 62.8515 13.9631 62.5188 13.9631C62.1679 13.9631 61.883 14.0178 61.6643 14.1272C61.4501 14.232 61.2929 14.3665 61.1926 14.5305C61.0969 14.6946 61.0491 14.8678 61.0491 15.05C61.0491 15.1868 61.0719 15.3098 61.1174 15.4192C61.1676 15.524 61.2541 15.622 61.3772 15.7131C61.5002 15.7997 61.6734 15.8818 61.8967 15.9592C62.12 16.0367 62.4049 16.1142 62.7512 16.1917C63.3573 16.3284 63.8564 16.4924 64.2483 16.6838C64.6402 16.8752 64.9319 17.1099 65.1233 17.3879C65.3147 17.6659 65.4104 18.0032 65.4104 18.3997C65.4104 18.7232 65.342 19.0194 65.2053 19.2883C65.0732 19.5572 64.8795 19.7896 64.6243 19.9856C64.3736 20.177 64.0728 20.3274 63.7219 20.4368C63.3756 20.5416 62.9859 20.594 62.553 20.594C61.9013 20.594 61.3498 20.4778 60.8987 20.2454C60.4475 20.0129 60.1057 19.7122 59.8733 19.343C59.6409 18.9739 59.5247 18.5842 59.5247 18.1741H60.7961C60.8144 18.5204 60.9146 18.7961 61.0969 19.0012C61.2792 19.2017 61.5025 19.3453 61.7668 19.4319C62.0312 19.5139 62.2932 19.5549 62.553 19.5549C62.8993 19.5549 63.1887 19.5094 63.4211 19.4182C63.6581 19.3271 63.8381 19.2017 63.9612 19.0422C64.0842 18.8827 64.1457 18.7004 64.1457 18.4954Z" fill="#FFB82F"/>
</g>
</g>
<defs>
<filter id="filter0_i_150_2775" x="6.5" y="0.457275" width="66" height="28" filterUnits="userSpaceOnUse" color-interpolation-filters="sRGB">
<feFlood flood-opacity="0" result="BackgroundImageFix"/>
<feBlend mode="normal" in="SourceGraphic" in2="BackgroundImageFix" result="shape"/>
<feColorMatrix in="SourceAlpha" type="matrix" values="0 0 0 0 0 0 0 0 0 0 0 0 0 0 0 0 0 0 127 0" result="hardAlpha"/>
<feOffset dy="-2"/>
<feGaussianBlur stdDeviation="1.5"/>
<feComposite in2="hardAlpha" operator="arithmetic" k2="-1" k3="1"/>
<feColorMatrix type="matrix" values="0 0 0 0 0 0 0 0 0 0 0 0 0 0 0 0 0 0 0.44 0"/>
<feBlend mode="normal" in2="shape" result="effect1_innerShadow_150_2775"/>
</filter>
<filter id="filter1_d_150_2775" x="0.647608" y="0.104151" width="78.1628" height="36.8898" filterUnits="userSpaceOnUse" color-interpolation-filters="sRGB">
<feFlood flood-opacity="0" result="BackgroundImageFix"/>
<feColorMatrix in="SourceAlpha" type="matrix" values="0 0 0 0 0 0 0 0 0 0 0 0 0 0 0 0 0 0 127 0" result="hardAlpha"/>
<feOffset dy="3"/>
<feGaussianBlur stdDeviation="6.7"/>
<feComposite in2="hardAlpha" operator="out"/>
<feColorMatrix type="matrix" values="0 0 0 0 0 0 0 0 0 0 0 0 0 0 0 0 0 0 0.85 0"/>
<feBlend mode="normal" in2="BackgroundImageFix" result="effect1_dropShadow_150_2775"/>
<feBlend mode="normal" in="SourceGraphic" in2="effect1_dropShadow_150_2775" result="shape"/>
</filter>
</defs>
</svg>
