<svg width="62" height="38" viewBox="0 0 62 38" fill="none" xmlns="http://www.w3.org/2000/svg">
<g filter="url(#filter0_i_2092_8720)">
<rect x="6" y="3.27832" width="49" height="26" fill="#2D3A49"/>
<rect x="6.5" y="3.77832" width="48" height="25" stroke="white" stroke-linecap="square" stroke-dasharray="1 64"/>
<g filter="url(#filter1_d_2092_8720)">
<path d="M16.1221 21.2783H14.044L14.0577 20.2051H16.1221C16.833 20.2051 17.4255 20.057 17.8995 19.7607C18.3734 19.46 18.7289 19.0407 18.9659 18.5029C19.2074 17.9606 19.3282 17.3271 19.3282 16.6025V15.9941C19.3282 15.4245 19.2598 14.9186 19.1231 14.4766C18.9864 14.0299 18.7858 13.654 18.5215 13.3486C18.2572 13.0387 17.9336 12.804 17.5508 12.6445C17.1726 12.485 16.7373 12.4053 16.2452 12.4053H14.003V11.3252H16.2452C16.8968 11.3252 17.4916 11.4346 18.0293 11.6533C18.5671 11.8675 19.0297 12.1797 19.417 12.5898C19.809 12.9954 20.1097 13.4876 20.3194 14.0664C20.529 14.6406 20.6338 15.2878 20.6338 16.0078V16.6025C20.6338 17.3226 20.529 17.972 20.3194 18.5508C20.1097 19.125 19.8067 19.6149 19.4102 20.0205C19.0183 20.4261 18.5443 20.7383 17.9883 20.957C17.4369 21.1712 16.8148 21.2783 16.1221 21.2783ZM14.7481 11.3252V21.2783H13.4287V11.3252H14.7481ZM25.3542 21.415C24.8392 21.415 24.3721 21.3285 23.9528 21.1553C23.5381 20.9775 23.1804 20.7292 22.8796 20.4102C22.5833 20.0911 22.3555 19.7129 22.196 19.2754C22.0365 18.8379 21.9567 18.3594 21.9567 17.8398V17.5527C21.9567 16.9512 22.0456 16.4157 22.2233 15.9463C22.4011 15.4723 22.6426 15.0713 22.9479 14.7432C23.2533 14.415 23.5996 14.1667 23.987 13.998C24.3744 13.8294 24.7754 13.7451 25.1901 13.7451C25.7188 13.7451 26.1745 13.8363 26.5573 14.0186C26.9447 14.2008 27.2614 14.4561 27.5075 14.7842C27.7536 15.1077 27.9359 15.4906 28.0544 15.9326C28.1729 16.3701 28.2321 16.8486 28.2321 17.3682V17.9355H22.7087V16.9033H26.9675V16.8076C26.9492 16.4795 26.8809 16.1605 26.7624 15.8506C26.6484 15.5407 26.4662 15.2855 26.2155 15.085C25.9649 14.8844 25.6231 14.7842 25.1901 14.7842C24.903 14.7842 24.6387 14.8457 24.3971 14.9688C24.1556 15.0872 23.9483 15.265 23.7751 15.502C23.6019 15.7389 23.4675 16.0283 23.3718 16.3701C23.2761 16.7119 23.2282 17.1061 23.2282 17.5527V17.8398C23.2282 18.1908 23.2761 18.5212 23.3718 18.8311C23.472 19.1364 23.6156 19.4053 23.8024 19.6377C23.9938 19.8701 24.224 20.0524 24.4929 20.1846C24.7663 20.3167 25.0762 20.3828 25.4225 20.3828C25.8692 20.3828 26.2474 20.2917 26.5573 20.1094C26.8672 19.9271 27.1384 19.6833 27.3708 19.3779L28.1364 19.9863C27.9769 20.2279 27.7741 20.458 27.528 20.6768C27.2819 20.8955 26.9789 21.0732 26.6188 21.21C26.2634 21.3467 25.8418 21.415 25.3542 21.415ZM30.8265 15.3516V21.2783H29.555V13.8818H30.7581L30.8265 15.3516ZM30.5667 17.2998L29.9788 17.2793C29.9834 16.7734 30.0495 16.3063 30.1771 15.8779C30.3047 15.445 30.4938 15.069 30.7445 14.75C30.9951 14.431 31.3073 14.1849 31.681 14.0117C32.0547 13.834 32.4876 13.7451 32.9798 13.7451C33.3262 13.7451 33.6452 13.7952 33.9368 13.8955C34.2285 13.9912 34.4814 14.1439 34.6956 14.3535C34.9098 14.5632 35.0762 14.832 35.1946 15.1602C35.3131 15.4883 35.3724 15.8848 35.3724 16.3496V21.2783H34.1077V16.4111C34.1077 16.0238 34.0417 15.7139 33.9095 15.4814C33.7819 15.249 33.5996 15.0804 33.3626 14.9756C33.1256 14.8662 32.8476 14.8115 32.5286 14.8115C32.1549 14.8115 31.8428 14.8776 31.5921 15.0098C31.3415 15.1419 31.1409 15.3242 30.9905 15.5566C30.8402 15.7891 30.7308 16.0557 30.6624 16.3564C30.5986 16.6527 30.5667 16.9671 30.5667 17.2998ZM35.3587 16.6025L34.5111 16.8623C34.5156 16.4567 34.5817 16.0671 34.7093 15.6934C34.8415 15.3197 35.0306 14.987 35.2767 14.6953C35.5273 14.4036 35.8349 14.1735 36.1995 14.0049C36.5641 13.8317 36.9811 13.7451 37.4505 13.7451C37.847 13.7451 38.1979 13.7975 38.5032 13.9023C38.8131 14.0072 39.0729 14.1689 39.2825 14.3877C39.4967 14.6019 39.6585 14.8776 39.7679 15.2148C39.8773 15.5521 39.932 15.9531 39.932 16.418V21.2783H38.6605V16.4043C38.6605 15.9896 38.5944 15.6683 38.4622 15.4404C38.3346 15.208 38.1523 15.0462 37.9153 14.9551C37.6829 14.8594 37.4049 14.8115 37.0814 14.8115C36.8034 14.8115 36.5573 14.8594 36.3431 14.9551C36.1289 15.0508 35.9489 15.1829 35.803 15.3516C35.6572 15.5156 35.5456 15.7048 35.4681 15.9189C35.3952 16.1331 35.3587 16.361 35.3587 16.6025ZM41.3711 17.6621V17.5049C41.3711 16.9717 41.4485 16.4772 41.6035 16.0215C41.7584 15.5612 41.9817 15.1624 42.2734 14.8252C42.5651 14.4834 42.9183 14.2191 43.333 14.0322C43.7477 13.8408 44.2125 13.7451 44.7275 13.7451C45.247 13.7451 45.7142 13.8408 46.1289 14.0322C46.5481 14.2191 46.9036 14.4834 47.1953 14.8252C47.4915 15.1624 47.7171 15.5612 47.872 16.0215C48.027 16.4772 48.1045 16.9717 48.1045 17.5049V17.6621C48.1045 18.1953 48.027 18.6898 47.872 19.1455C47.7171 19.6012 47.4915 20 47.1953 20.3418C46.9036 20.679 46.5504 20.9434 46.1357 21.1348C45.7255 21.3216 45.2607 21.415 44.7412 21.415C44.2216 21.415 43.7545 21.3216 43.3398 21.1348C42.9251 20.9434 42.5696 20.679 42.2734 20.3418C41.9817 20 41.7584 19.6012 41.6035 19.1455C41.4485 18.6898 41.3711 18.1953 41.3711 17.6621ZM42.6357 17.5049V17.6621C42.6357 18.0312 42.679 18.3799 42.7656 18.708C42.8522 19.0316 42.9821 19.3187 43.1552 19.5693C43.333 19.82 43.554 20.0182 43.8183 20.1641C44.0826 20.3053 44.3903 20.376 44.7412 20.376C45.0875 20.376 45.3906 20.3053 45.6504 20.1641C45.9147 20.0182 46.1334 19.82 46.3066 19.5693C46.4798 19.3187 46.6097 19.0316 46.6962 18.708C46.7874 18.3799 46.833 18.0312 46.833 17.6621V17.5049C46.833 17.1403 46.7874 16.7962 46.6962 16.4727C46.6097 16.1445 46.4775 15.8551 46.2998 15.6045C46.1266 15.3493 45.9078 15.1488 45.6435 15.0029C45.3837 14.8571 45.0784 14.7842 44.7275 14.7842C44.3811 14.7842 44.0758 14.8571 43.8115 15.0029C43.5517 15.1488 43.333 15.3493 43.1552 15.6045C42.9821 15.8551 42.8522 16.1445 42.7656 16.4727C42.679 16.7962 42.6357 17.1403 42.6357 17.5049Z" fill="#FFB82F"/>
</g>
</g>
<defs>
<filter id="filter0_i_2092_8720" x="6" y="1.27832" width="49" height="28" filterUnits="userSpaceOnUse" color-interpolation-filters="sRGB">
<feFlood flood-opacity="0" result="BackgroundImageFix"/>
<feBlend mode="normal" in="SourceGraphic" in2="BackgroundImageFix" result="shape"/>
<feColorMatrix in="SourceAlpha" type="matrix" values="0 0 0 0 0 0 0 0 0 0 0 0 0 0 0 0 0 0 127 0" result="hardAlpha"/>
<feOffset dy="-2"/>
<feGaussianBlur stdDeviation="1.5"/>
<feComposite in2="hardAlpha" operator="arithmetic" k2="-1" k3="1"/>
<feColorMatrix type="matrix" values="0 0 0 0 0 0 0 0 0 0 0 0 0 0 0 0 0 0 0.44 0"/>
<feBlend mode="normal" in2="shape" result="effect1_innerShadow_2092_8720"/>
</filter>
<filter id="filter1_d_2092_8720" x="0.0287113" y="0.925196" width="61.4758" height="36.8898" filterUnits="userSpaceOnUse" color-interpolation-filters="sRGB">
<feFlood flood-opacity="0" result="BackgroundImageFix"/>
<feColorMatrix in="SourceAlpha" type="matrix" values="0 0 0 0 0 0 0 0 0 0 0 0 0 0 0 0 0 0 127 0" result="hardAlpha"/>
<feOffset dy="3"/>
<feGaussianBlur stdDeviation="6.7"/>
<feComposite in2="hardAlpha" operator="out"/>
<feColorMatrix type="matrix" values="0 0 0 0 0 0 0 0 0 0 0 0 0 0 0 0 0 0 0.85 0"/>
<feBlend mode="normal" in2="BackgroundImageFix" result="effect1_dropShadow_2092_8720"/>
<feBlend mode="normal" in="SourceGraphic" in2="effect1_dropShadow_2092_8720" result="shape"/>
</filter>
</defs>
</svg>
