<svg width="191" height="29" viewBox="0 0 191 29" fill="none" xmlns="http://www.w3.org/2000/svg">
<path d="M48.0061 22.6858V0.686505H52.718V9.45504C53.2589 8.66452 53.9558 8.07163 54.8087 7.67637C55.6617 7.2603 56.6082 7.05227 57.6484 7.05227C61.2473 7.05227 63.0468 9.195 63.0468 13.4804V22.6858H58.3349V13.6989C58.3349 12.6379 58.1372 11.8786 57.742 11.4209C57.3467 10.9425 56.7642 10.7032 55.9945 10.7032C54.996 10.7032 54.195 11.0153 53.5918 11.6394C53.0093 12.2635 52.718 13.0956 52.718 14.1357V22.6858H48.0061Z" fill="#C7DAE8"/>
<path d="M71.7444 23.0291C70.6002 23.0291 69.5913 22.8107 68.7175 22.3738C67.8438 21.9369 67.1469 21.344 66.6268 20.5951C66.1275 19.8462 65.8779 19.0037 65.8779 18.0675C65.8779 16.965 66.1691 16.0808 66.7516 15.4151C67.3341 14.7494 68.2807 14.2814 69.5913 14.0109C70.9018 13.7197 72.6389 13.5741 74.8024 13.5741H75.9258V13.0436C75.9258 12.1282 75.7178 11.4833 75.3017 11.1089C74.8857 10.7136 74.1783 10.516 73.1798 10.516C72.3477 10.516 71.4635 10.6512 70.5274 10.9217C69.6121 11.1713 68.6967 11.5562 67.7814 12.0762L66.502 8.92456C67.0429 8.5709 67.6982 8.24845 68.4679 7.95721C69.2584 7.66596 70.0801 7.44753 70.9331 7.30191C71.786 7.13548 72.5973 7.05227 73.367 7.05227C75.7386 7.05227 77.5068 7.59315 78.6718 8.67492C79.8368 9.73588 80.4193 11.3897 80.4193 13.6365V22.6858H76.0194V20.3767C75.7074 21.188 75.1769 21.8329 74.428 22.3114C73.6999 22.7899 72.8053 23.0291 71.7444 23.0291ZM72.8053 19.8774C73.6791 19.8774 74.4176 19.5758 75.0209 18.9725C75.6242 18.3692 75.9258 17.5891 75.9258 16.6321V16.008H74.8336C73.2318 16.008 72.098 16.1537 71.4323 16.4449C70.7666 16.7153 70.4338 17.1938 70.4338 17.8803C70.4338 18.4628 70.6314 18.9413 71.0267 19.3157C71.4427 19.6902 72.0356 19.8774 72.8053 19.8774Z" fill="#C7DAE8"/>
<path d="M83.747 4.39987V0H88.8334V4.39987H83.747ZM83.9342 22.6858V7.36432H88.6461V22.6858H83.9342Z" fill="#C7DAE8"/>
<path d="M92.2839 22.6858V7.36432H96.9022V9.61106C97.4223 8.77893 98.1192 8.14444 98.9929 7.70757C99.8667 7.2707 100.844 7.05227 101.926 7.05227C103.736 7.05227 105.088 7.58275 105.983 8.64371C106.877 9.68387 107.325 11.2961 107.325 13.4804V22.6858H102.613V13.6989C102.613 12.6379 102.415 11.8786 102.02 11.4209C101.625 10.9425 101.042 10.7032 100.272 10.7032C99.2738 10.7032 98.4729 11.0153 97.8696 11.6394C97.2871 12.2635 96.9958 13.0956 96.9958 14.1357V22.6858H92.2839Z" fill="#C7DAE8"/>
<path d="M110.842 28.3027V7.36432H115.46V9.64227C115.877 8.85174 116.511 8.22765 117.364 7.76998C118.238 7.29151 119.215 7.05227 120.297 7.05227C121.629 7.05227 122.794 7.37472 123.792 8.01962C124.812 8.66452 125.602 9.57985 126.164 10.7656C126.725 11.9514 127.006 13.366 127.006 15.0095C127.006 16.6529 126.725 18.0779 126.164 19.2845C125.602 20.4703 124.812 21.396 123.792 22.0617C122.794 22.7066 121.629 23.0291 120.297 23.0291C119.278 23.0291 118.342 22.8107 117.489 22.3738C116.657 21.9369 116.012 21.3544 115.554 20.6263V28.3027H110.842ZM118.893 19.503C119.892 19.503 120.703 19.1389 121.327 18.4108C121.951 17.6827 122.263 16.5489 122.263 15.0095C122.263 13.4908 121.951 12.3779 121.327 11.6706C120.703 10.9425 119.892 10.5784 118.893 10.5784C117.874 10.5784 117.052 10.9425 116.428 11.6706C115.804 12.3779 115.492 13.4908 115.492 15.0095C115.492 16.5489 115.804 17.6827 116.428 18.4108C117.052 19.1389 117.874 19.503 118.893 19.503Z" fill="#C7DAE8"/>
<path d="M129.888 22.6858V7.36432H134.506V10.0167C135.234 8.22765 136.795 7.2395 139.187 7.05227L140.56 6.95866L139.864 11.0234L138.189 11.2025C135.859 11.4313 134.694 12.6171 134.694 14.7598V22.6858H129.888Z" fill="#C7DAE8"/>
<path d="M149.838 23.0291C148.194 23.0291 146.759 22.7066 145.532 22.0617C144.325 21.396 143.389 20.4703 142.723 19.2845C142.057 18.0779 141.725 16.6529 141.725 15.0095C141.725 13.3868 142.057 11.9826 142.723 10.7968C143.389 9.59026 144.325 8.66452 145.532 8.01962C146.759 7.37472 148.194 7.05227 149.838 7.05227C151.481 7.05227 152.906 7.37472 154.113 8.01962C155.34 8.66452 156.287 9.59026 156.953 10.7968C157.639 11.9826 157.982 13.3868 157.982 15.0095C157.982 16.6529 157.639 18.0779 156.953 19.2845C156.287 20.4703 155.34 21.396 154.113 22.0617C152.906 22.7066 151.481 23.0291 149.838 23.0291ZM149.838 19.503C150.836 19.503 151.648 19.1389 152.272 18.4108C152.917 17.6827 153.239 16.5489 153.239 15.0095C153.239 13.4908 152.917 12.3779 152.272 11.6706C151.648 10.9425 150.836 10.5784 149.838 10.5784C148.839 10.5784 148.028 10.9425 147.404 11.6706C146.78 12.3779 146.468 13.4908 146.468 15.0095C146.468 16.5489 146.78 17.6827 147.404 18.4108C148.028 19.1389 148.839 19.503 149.838 19.503Z" fill="#C7DAE8"/>
<path d="M168.213 23.0291C166.57 23.0291 165.134 22.7066 163.907 22.0617C162.7 21.396 161.764 20.4703 161.099 19.2845C160.433 18.0779 160.1 16.6529 160.1 15.0095C160.1 13.3868 160.433 11.9826 161.099 10.7968C161.764 9.59026 162.7 8.66452 163.907 8.01962C165.134 7.37472 166.57 7.05227 168.213 7.05227C169.857 7.05227 171.282 7.37472 172.488 8.01962C173.716 8.66452 174.662 9.59026 175.328 10.7968C176.014 11.9826 176.358 13.3868 176.358 15.0095C176.358 16.6529 176.014 18.0779 175.328 19.2845C174.662 20.4703 173.716 21.396 172.488 22.0617C171.282 22.7066 169.857 23.0291 168.213 23.0291ZM168.213 19.503C169.212 19.503 170.023 19.1389 170.647 18.4108C171.292 17.6827 171.615 16.5489 171.615 15.0095C171.615 13.4908 171.292 12.3779 170.647 11.6706C170.023 10.9425 169.212 10.5784 168.213 10.5784C167.215 10.5784 166.403 10.9425 165.779 11.6706C165.155 12.3779 164.843 13.4908 164.843 15.0095C164.843 16.5489 165.155 17.6827 165.779 18.4108C166.403 19.1389 167.215 19.503 168.213 19.503Z" fill="#C7DAE8"/>
<path d="M180.258 22.6858V10.8905H177.356V7.36432H180.258C180.299 5.20079 180.924 3.57814 182.13 2.49638C183.358 1.39381 185.219 0.769717 187.716 0.624096H190.375L189.713 3.9318L188.246 4.02541C187.04 4.08782 186.187 4.34786 185.688 4.80553C185.209 5.2424 184.97 5.9185 184.97 6.83384V7.36432H188.964V10.8905H184.97V22.6858H180.258Z" fill="#C7DAE8"/>
<path d="M36.8167 13.1438L36.872 13.2C37.6056 12.4775 38.6908 12.1099 40.1412 12.1099C40.8577 12.1099 41.5374 12.2156 42.1809 12.4266L42.1809 12.4266L42.1827 12.4271C42.8406 12.6257 43.4926 12.9427 44.1387 13.3789L44.2163 13.4312L44.2547 13.3459L45.2977 11.0261L45.3226 10.9706L45.2752 10.9324C44.6715 10.4467 43.9011 10.0655 42.9668 9.78667C42.032 9.50778 41.0539 9.36847 40.0326 9.36847C38.3724 9.36847 36.9477 9.65285 35.7612 10.225C34.5754 10.7968 33.6582 11.605 33.0123 12.6497L33.0121 12.6501C32.3805 13.6827 32.0662 14.8982 32.0662 16.2934C32.0662 17.7011 32.3805 18.929 33.0119 19.9741L33.0119 19.9741L33.0126 19.9752C33.6585 21.0073 34.5757 21.809 35.7612 22.3807C36.9477 22.9529 38.3724 23.2372 40.0326 23.2372C41.0539 23.2372 42.032 23.0979 42.9668 22.819L42.9677 22.8187C43.9014 22.5275 44.6711 22.1465 45.2744 21.674L45.323 21.6359L45.2977 21.5796L44.2547 19.2598L44.2163 19.1745L44.1387 19.2268C43.4924 19.6632 42.8401 19.9865 42.1818 20.1977C41.538 20.3963 40.858 20.4958 40.1412 20.4958C38.691 20.4958 37.6059 20.1283 36.8723 19.406C36.1525 18.6831 35.7874 17.6496 35.7874 16.2934C35.7874 14.937 36.1526 13.91 36.8721 13.1999L36.8167 13.1438ZM36.8167 13.1438C36.0779 13.8731 35.7086 14.9229 35.7086 16.2934C35.7086 17.6639 36.0779 18.7201 36.8167 19.4619L33.0794 19.9334C32.4565 18.9024 32.145 17.6891 32.145 16.2934C32.145 14.9104 32.4565 13.7096 33.0794 12.6912C33.7167 11.6602 34.6221 10.8618 35.7955 10.296C36.9688 9.73016 38.3812 9.44727 40.0326 9.44727C41.0466 9.44727 42.0172 9.58557 42.9443 9.86218C43.8714 10.1388 44.6319 10.516 45.2258 10.9938L44.2156 13.2406C44.2194 13.2432 44.2231 13.2457 44.2269 13.2482L44.1828 13.3136L44.1109 13.2812L44.1164 13.2691C43.4862 12.8519 42.8492 12.546 42.2055 12.3517C41.5536 12.1379 40.8655 12.0311 40.1412 12.0311C38.6782 12.0311 37.57 12.402 36.8167 13.1438Z" fill="#C7DAE8" stroke="#C7DAE8" stroke-width="0.1576"/>
<path fill-rule="evenodd" clip-rule="evenodd" d="M19.8535 4.56856C20.0997 4.32237 20.0997 3.92323 19.8535 3.67704L17.4563 1.27985C17.2101 1.03367 16.811 1.03367 16.5648 1.27985L9.98926 7.85541C9.74307 8.1016 9.34392 8.1016 9.09774 7.85541L6.93501 5.69269C6.68883 5.4465 6.28968 5.4465 6.0435 5.69269L3.64631 8.08987C3.40012 8.33606 3.40012 8.73521 3.64631 8.98139L6.23553 11.5706C6.24617 11.5813 6.24617 11.5985 6.23553 11.6091C6.2249 11.6198 6.2249 11.637 6.23554 11.6476L9.05922 14.4713C9.30541 14.7175 9.70456 14.7175 9.95074 14.4713L19.8535 4.56856Z" fill="#C7DAE8"/>
<path fill-rule="evenodd" clip-rule="evenodd" d="M24.5045 10.5326C24.7507 10.2864 24.7507 9.88725 24.5045 9.64107L21.9436 7.08015C21.6974 6.83396 21.2982 6.83396 21.0521 7.08015L10.0112 18.121C9.76498 18.3672 9.36583 18.3672 9.11965 18.121L4.09834 13.0997C3.85216 12.8536 3.45301 12.8536 3.20683 13.0997L0.80964 15.4969C0.563454 15.7431 0.563453 16.1423 0.809639 16.3884L9.48406 25.0629C9.49519 25.074 9.51323 25.074 9.52436 25.0629C9.53549 25.0517 9.55353 25.0517 9.56466 25.0629L9.65697 25.1552C9.71909 25.2173 9.81979 25.2173 9.8819 25.1552L24.5045 10.5326Z" fill="#C7DAE8"/>
</svg>
