<svg width="111" height="33" viewBox="0 0 111 33" fill="none" xmlns="http://www.w3.org/2000/svg">
<g clip-path="url(#clip0_2098_8737)">
<path opacity="0.62" d="M7.33534 26.0937L11.5025 20.9649C11.9416 20.4336 12.7587 20.4336 13.1877 20.9649L17.3548 26.0937C17.6817 26.4921 17.6817 27.0642 17.3548 27.4627L13.1877 32.6017C12.7485 33.133 11.9314 33.133 11.5025 32.6017L7.33534 27.4729C7.0085 27.0642 7.0085 26.5023 7.33534 26.0937Z" fill="#C7DAE8"/>
<path d="M36.6993 15.652C35.8618 15.4987 35.3307 15.3761 35.1162 15.3046C34.9119 15.2229 34.82 15.0798 34.82 14.8755C34.82 14.661 34.8915 14.5077 35.0447 14.4158C35.1979 14.3238 35.5349 14.2727 36.0558 14.2727C36.5767 14.2727 37.4959 14.3545 38.8033 14.5281L38.8339 12.7811L38.313 12.6891C37.2406 12.4848 36.3929 12.3928 35.7698 12.3928C34.871 12.3928 34.1459 12.6074 33.5739 13.0365C33.002 13.4554 32.7262 14.0888 32.7262 14.9266C32.7262 15.7541 32.9305 16.3365 33.3288 16.6634C33.7271 16.9904 34.3297 17.2254 35.1468 17.3582C35.9639 17.491 36.4746 17.6136 36.6584 17.7055C36.8627 17.7975 36.9546 17.9507 36.9546 18.1449C36.9546 18.3492 36.8627 18.4922 36.6686 18.6046C36.4848 18.6966 36.1477 18.7476 35.6268 18.7476C35.1264 18.7476 34.2174 18.6659 32.91 18.4922L32.8488 20.2597L33.3492 20.3517C34.3399 20.5458 35.1775 20.6377 35.872 20.6377C37.9862 20.6377 39.0484 19.7898 39.0484 18.0836C39.0484 17.3071 38.8645 16.7452 38.5071 16.3978C38.1598 16.0402 37.547 15.795 36.6993 15.652ZM43.8283 15.652C42.9908 15.4987 42.4597 15.3761 42.2452 15.3046C42.041 15.2229 41.949 15.0798 41.949 14.8755C41.949 14.661 42.0205 14.5077 42.1737 14.4158C42.3269 14.3238 42.664 14.2727 43.1849 14.2727C43.7058 14.2727 44.625 14.3545 45.9323 14.5281L45.963 12.7811L45.4421 12.6891C44.3697 12.4848 43.5219 12.3928 42.8989 12.3928C42.0001 12.3928 41.2749 12.6074 40.703 13.0365C40.131 13.4554 39.8553 14.0888 39.8553 14.9266C39.8553 15.7541 40.0595 16.3365 40.4579 16.6634C40.8562 16.9904 41.4588 17.2254 42.2759 17.3582C43.093 17.491 43.6036 17.6136 43.7875 17.7055C43.9918 17.7975 44.0837 17.9507 44.0837 18.1449C44.0837 18.3492 43.9918 18.4922 43.7977 18.6046C43.6138 18.6966 43.2666 18.7476 42.7559 18.7476C42.2554 18.7476 41.3464 18.6659 40.0391 18.4922L39.9778 20.2597L40.4783 20.3517C41.469 20.5458 42.3065 20.6377 43.001 20.6377C45.1152 20.6377 46.1775 19.7898 46.1775 18.0836C46.1775 17.3071 45.9936 16.7452 45.6361 16.3978C45.2787 16.0504 44.6761 15.795 43.8283 15.652ZM50.4876 18.6455H50.0382L48.7819 12.5563H46.5656L48.4653 20.4436H52.0605L53.95 12.5563H51.8051L50.4876 18.6455ZM62.3455 12.3928C61.5693 12.3928 60.7522 12.6278 59.9045 13.0978V12.5461H58.7401V20.4334H59.9249V14.0275L60.2211 13.8845C60.4254 13.7925 60.7011 13.6904 61.0688 13.5984C61.4467 13.4963 61.8042 13.4452 62.1412 13.4452C62.846 13.4452 63.3056 13.6495 63.5099 14.0582C63.7346 14.4566 63.8367 15.2024 63.8367 16.2956V20.4334H65.001V16.265C65.001 14.8142 64.8172 13.8028 64.4495 13.2306C64.1022 12.6789 63.3975 12.3928 62.3455 12.3928ZM69.8423 12.3928C67.6463 12.3928 66.5433 13.7721 66.5433 16.5408C66.5433 17.9303 66.7782 18.952 67.2582 19.6161C67.7281 20.2699 68.5349 20.5969 69.6686 20.5969C70.5164 20.5969 71.5479 20.5151 72.7429 20.3415L72.7123 19.4117L72.2527 19.4628C71.4458 19.5241 70.6389 19.5548 69.8525 19.5548C69.0762 19.5548 68.5247 19.3402 68.2081 18.9213C67.8915 18.5024 67.7383 17.8486 67.7383 16.9802H72.9472L73.0085 16.0811C73.0085 14.804 72.7429 13.8743 72.222 13.2919C71.7011 12.6994 70.9045 12.3928 69.8423 12.3928ZM67.7281 16.0402C67.7383 15.1105 67.9221 14.4362 68.2694 14.0173C68.6268 13.5984 69.158 13.3839 69.8525 13.3839C70.5572 13.3839 71.0577 13.5882 71.3641 13.9867C71.6807 14.3851 71.8339 15.0696 71.8339 16.0402H67.7281ZM77.2165 19.565C76.7262 19.565 76.4096 19.422 76.2666 19.1359C76.144 18.8498 76.0725 18.2572 76.0725 17.348V13.578H78.5851V12.5563H76.0725V10.1452H74.9082V12.5563H73.7847V13.578H74.9082V17.726C74.9082 18.8498 75.0614 19.6161 75.378 20.0145C75.6946 20.413 76.2666 20.6173 77.0837 20.6173C77.4514 20.6173 77.9927 20.556 78.6974 20.4436L78.6157 19.4628L77.2165 19.565ZM87.3483 19.422H87.0827L85.2034 12.7096H83.9778L82.0985 19.422H81.8432L80.2499 12.5563H79.0651L80.9444 20.4436H82.9156L84.5906 14.2727L86.2657 20.4436H88.2369L90.1162 12.5563H88.9314L87.3483 19.422ZM94.3752 12.3928C93.1598 12.3928 92.2917 12.7096 91.7708 13.3532C91.2601 13.9969 90.9945 15.039 90.9945 16.4795C90.9945 17.9201 91.2397 18.9724 91.7197 19.6161C92.1997 20.2699 93.0883 20.5969 94.3752 20.5969C95.6621 20.5969 96.5405 20.2699 97.0307 19.6161C97.5108 18.9622 97.7559 17.9201 97.7559 16.4795C97.7559 15.039 97.5006 13.9969 96.9797 13.3532C96.469 12.7198 95.6009 12.3928 94.3752 12.3928ZM96.1217 18.9009C95.846 19.3504 95.2638 19.5752 94.3752 19.5752C93.4866 19.5752 92.9045 19.3402 92.6185 18.8805C92.3427 18.4207 92.2099 17.6136 92.2099 16.4693C92.2099 15.3148 92.3632 14.5179 92.6696 14.0888C92.9862 13.6495 93.5581 13.4247 94.3752 13.4247C95.2025 13.4247 95.7745 13.6495 96.0809 14.0888C96.3873 14.5179 96.5405 15.3148 96.5405 16.4693C96.5303 17.6238 96.3975 18.4309 96.1217 18.9009ZM100.534 12.5563H99.3697V20.4436H100.554V14.6507L100.953 14.4464C101.208 14.3136 101.566 14.1501 102.046 13.9764C102.526 13.7925 102.995 13.6699 103.435 13.578V12.3826C102.424 12.587 101.463 12.9956 100.544 13.6291V12.5563H100.534ZM107.939 16.1833L110.513 12.5563H109.175L106.917 15.7439L105.682 15.8052V9.11328H104.497V20.4436H105.682V16.8269L106.928 16.786L109.287 20.4436H110.625L107.939 16.1833Z" fill="#C7DAE8"/>
<path d="M19.6529 8.41858C19.2137 7.88731 18.3966 7.88731 17.9676 8.41858L13.8005 13.5474C13.4737 13.9458 13.4737 14.518 13.8005 14.9164L17.9676 20.0452C18.4068 20.5765 19.2239 20.5765 19.6529 20.0452L23.8098 14.9164C24.1366 14.518 24.1366 13.9458 23.8098 13.5474L19.6529 8.41858ZM6.72249 8.41858C6.28331 7.88731 5.46623 7.88731 5.03726 8.41858L0.870125 13.5474C0.543292 13.9458 0.543292 14.518 0.870125 14.9164L5.03726 20.0452C5.47644 20.5765 6.29352 20.5765 6.72249 20.0452L10.8896 14.9164C11.2165 14.518 11.2165 13.9458 10.8896 13.5474L6.72249 8.41858ZM17.3446 5.53746L13.1877 0.398452C12.7485 -0.132817 11.9314 -0.132817 11.5024 0.398452L7.33531 5.53746C7.00847 5.93591 7.00847 6.50805 7.33531 6.9065L11.5024 12.0353C11.9416 12.5666 12.7587 12.5666 13.1877 12.0353L17.3548 6.9065C17.6714 6.49783 17.6714 5.93591 17.3446 5.53746ZM56.7281 17.8588H54.9203C54.7773 17.8588 54.6649 17.9712 54.6649 18.1142V20.1882C54.6649 20.3313 54.7773 20.4437 54.9203 20.4437H56.7281C56.8711 20.4437 56.9834 20.3313 56.9834 20.1882V18.1142C56.9936 17.9712 56.8711 17.8588 56.7281 17.8588Z" fill="#C7DAE8"/>
</g>
<defs>
<clipPath id="clip0_2098_8737">
<rect width="110" height="33" fill="white" transform="translate(0.625)"/>
</clipPath>
</defs>
</svg>
