<svg width="89" height="29" viewBox="0 0 89 29" fill="none" xmlns="http://www.w3.org/2000/svg">
<g clip-path="url(#clip0_2098_8738)">
<path d="M36.5513 4.17015V12.0821H33.9713V-0.0498047H36.6267L42.2487 7.57149V-0.0498047H44.8314V12.0856H42.3379L36.5513 4.17015Z" fill="#C7DAE8"/>
<path d="M51.1596 3.07861C53.7787 3.07861 55.5613 5.0429 55.5613 7.917V8.42572H49.0294C49.1748 9.53573 50.0661 10.4634 51.5573 10.4634C52.3759 10.4634 53.3399 10.1356 53.9035 9.58989L54.9257 11.0818C54.0529 11.8819 52.6707 12.3001 51.3064 12.3001C48.6325 12.3001 46.614 10.4997 46.614 7.68046C46.6126 5.13409 48.4857 3.07861 51.1596 3.07861ZM48.9952 6.86183H53.3241C53.2693 6.02538 52.6872 4.91537 51.1596 4.91537C49.7226 4.91537 49.1042 5.98905 48.9952 6.86183Z" fill="#C7DAE8"/>
<path d="M60.822 9.11911L58.8028 12.0844H56.24L59.3506 7.57374L56.4224 3.29688H59.0051L60.822 6.00711L62.6224 3.29688H65.2099L62.2617 7.57168L65.4087 12.0823H62.8246L60.822 9.11911Z" fill="#C7DAE8"/>
<path d="M72.4829 10.9699C71.8823 11.6432 70.8278 12.2979 69.3908 12.2979C67.4628 12.2979 66.5537 11.2428 66.5537 9.53353V3.29443H68.8635V8.62371C68.8635 9.84274 69.4998 10.2425 70.4823 10.2425C71.3736 10.2425 72.0825 9.75155 72.4829 9.24214V3.29649H74.7927V12.082H72.4829V10.9699Z" fill="#C7DAE8"/>
<path d="M77.3213 9.31702C77.9576 9.91762 79.2671 10.5175 80.3586 10.5175C81.3589 10.5175 81.832 10.1171 81.832 9.57207C81.832 8.97147 81.0319 8.80761 80.0679 8.62592C78.5596 8.33522 76.6117 7.95333 76.6117 5.84301C76.6117 4.37031 77.9034 3.07861 80.2133 3.07861C81.7045 3.07861 82.8872 3.58802 83.7599 4.27912L82.8302 5.86152C82.303 5.29726 81.3027 4.8427 80.229 4.8427C79.3926 4.8427 78.8468 5.22459 78.8468 5.71617C78.8468 6.2249 79.5379 6.37093 80.5204 6.57113C82.0288 6.86183 84.0486 7.28006 84.0486 9.48088C84.0486 11.0818 82.6849 12.3001 80.2475 12.3001C78.72 12.3001 77.2466 11.7907 76.319 10.9358L77.3213 9.31702Z" fill="#C7DAE8"/>
<path d="M43.9306 19.5264L40.7027 28.1487H39.6365L36.4094 19.5264V28.1487H33.9713V16.291H37.3884L40.17 23.2747L42.9515 16.291H46.3864V28.1521H43.9306V19.5264Z" fill="#C7DAE8"/>
<path d="M54.4882 27.0394C53.8876 27.712 52.8332 28.3668 51.3961 28.3668C49.4682 28.3668 48.5583 27.3123 48.5583 25.6024V19.3633H50.8689V24.6919C50.8689 25.9109 51.5051 26.3113 52.4876 26.3113C53.3789 26.3113 54.0878 25.8197 54.4882 25.311V19.364H56.7981V28.1487H54.4882V27.0394Z" fill="#C7DAE8"/>
<path d="M59.6962 25.9665V21.3825H58.2413V19.364H59.6962V16.9644H62.0273V19.364H63.8099V21.3825H62.0273V25.3481C62.0273 25.8965 62.318 26.312 62.8274 26.312C63.1702 26.312 63.5007 26.1845 63.6275 26.057L64.1191 27.8032C63.7763 28.1124 63.1551 28.3668 62.1912 28.3668C60.569 28.3668 59.6962 27.5304 59.6962 25.9665Z" fill="#C7DAE8"/>
<path d="M71.3187 27.0394C70.7188 27.712 69.6636 28.3668 68.2266 28.3668C66.2987 28.3668 65.3895 27.3123 65.3895 25.6024V19.3633H67.6994V24.6919C67.6994 25.9109 68.3356 26.3113 69.3181 26.3113C70.2094 26.3113 70.9183 25.8197 71.3187 25.311V19.364H73.6286V28.1487H71.3187V27.0394Z" fill="#C7DAE8"/>
<path d="M81.1949 27.2397C80.595 27.9486 79.5584 28.3668 78.4127 28.3668C77.012 28.3668 75.3569 27.4214 75.3569 25.4571C75.3569 23.4002 77.012 22.6557 78.4127 22.6557C79.5783 22.6557 80.6135 23.0197 81.1949 23.7293V22.5103C81.1949 21.619 80.4312 21.0369 79.2677 21.0369C78.3215 21.0369 77.4487 21.3797 76.7028 22.0736L75.83 20.5282C76.903 19.582 78.2852 19.146 79.6695 19.146C81.6701 19.146 83.5089 19.9461 83.5089 22.474V28.1488H81.1984L81.1949 27.2397ZM81.1949 24.9477C80.8131 24.4383 80.0856 24.1839 79.3404 24.1839C78.4305 24.1839 77.6853 24.657 77.6853 25.5112C77.6853 26.3299 78.4305 26.8029 79.3404 26.8029C80.0856 26.8029 80.8131 26.5486 81.1949 26.0392V24.9477Z" fill="#C7DAE8"/>
<path d="M85.7975 16.0176H88.1094V28.1488H85.7995L85.7975 16.0176Z" fill="#C7DAE8"/>
<path d="M27.9556 19.9281C28.2347 19.6753 28.4601 19.369 28.6186 19.0275C28.777 18.6859 28.8652 18.316 28.8779 17.9397C28.8906 17.5634 28.8276 17.1883 28.6926 16.8368C28.5576 16.4854 28.3534 16.1646 28.092 15.8935C27.8307 15.6225 27.5175 15.4067 27.1712 15.259C26.8248 15.1113 26.4524 15.0347 26.0758 15.0337C25.6993 15.0327 25.3264 15.1074 24.9793 15.2533C24.6322 15.3991 24.318 15.6133 24.0552 15.8829C23.5455 16.406 23.2594 17.107 23.2575 17.8373C23.2555 18.5677 23.538 19.2701 24.0449 19.7959C24.5519 20.3216 25.2436 20.6295 25.9735 20.6541C26.7035 20.6788 27.4143 20.4184 27.9556 19.9281Z" fill="#C7DAE8"/>
<path d="M8.79822 27.1821C9.051 27.4611 9.35726 27.6866 9.69883 27.845C10.0404 28.0034 10.4103 28.0916 10.7866 28.1043C11.1629 28.117 11.538 28.054 11.8894 27.919C12.2409 27.784 12.5617 27.5798 12.8328 27.3185C13.1038 27.0571 13.3196 26.744 13.4673 26.3976C13.615 26.0513 13.6916 25.6788 13.6926 25.3023C13.6936 24.9258 13.6189 24.5529 13.473 24.2058C13.3271 23.8587 13.113 23.5444 12.8433 23.2816C12.3203 22.7719 11.6193 22.4858 10.889 22.4839C10.1586 22.482 9.45616 22.7644 8.9304 23.2714C8.40464 23.7783 8.09683 24.47 8.07216 25.1999C8.04749 25.9299 8.30789 26.6408 8.79822 27.1821Z" fill="#C7DAE8"/>
<path d="M1.57936 7.88489C1.3003 8.13767 1.07487 8.44393 0.916451 8.7855C0.758029 9.12707 0.669841 9.49699 0.657122 9.87329C0.644403 10.2496 0.707412 10.6246 0.84241 10.9761C0.977408 11.3276 1.18164 11.6484 1.44299 11.9194C1.70434 12.1905 2.01748 12.4062 2.36382 12.5539C2.71016 12.7017 3.08264 12.7783 3.45916 12.7793C3.83568 12.7802 4.20856 12.7056 4.55567 12.5597C4.90278 12.4138 5.21705 12.1997 5.47982 11.93C5.98953 11.4069 6.27563 10.706 6.27755 9.97562C6.27946 9.24526 5.99704 8.54283 5.49008 8.01707C4.98313 7.49131 4.29144 7.1835 3.56149 7.15883C2.83155 7.13416 2.12066 7.39456 1.57936 7.88489Z" fill="#C7DAE8"/>
<path d="M20.8506 0.743426C20.5982 0.463233 20.292 0.236702 19.9501 0.0773209C19.6083 -0.0820601 19.238 -0.171032 18.8611 -0.184296C18.4842 -0.19756 18.1084 -0.134846 17.7563 0.000112459C17.4041 0.135071 17.0827 0.339514 16.8112 0.601268C16.5397 0.863022 16.3236 1.17673 16.1759 1.52373C16.0281 1.87072 15.9517 2.24389 15.9512 2.62103C15.9506 2.99817 16.026 3.37155 16.1728 3.71896C16.3196 4.06637 16.5347 4.38069 16.8055 4.6432C17.329 5.15071 18.0291 5.43498 18.7582 5.436C19.4873 5.43703 20.1883 5.15473 20.7132 4.6487C21.2381 4.14267 21.5458 3.45249 21.5715 2.72385C21.5971 1.99521 21.3386 1.2851 20.8506 0.743426Z" fill="#C7DAE8"/>
<path d="M26.8711 9.4129C27.1349 9.14725 27.34 8.82916 27.4731 8.47921C27.6062 8.12927 27.6644 7.75526 27.6438 7.38143V7.36017C27.5169 5.05102 24.7169 3.98009 23.0817 5.6146L20.4352 8.30906C19.5885 9.15648 17.6304 9.28538 16.6239 8.27889L10.2922 1.8732C10.0429 1.61616 9.74452 1.41176 9.41477 1.27209C9.08503 1.13242 8.73062 1.06032 8.37251 1.06006C5.99 1.06006 4.79772 3.93964 6.48227 5.62625L9.15137 8.20279C10.1222 9.25932 10.0166 11.1208 9.15137 11.9853L2.73676 18.4102C2.24282 18.9042 1.96179 19.5718 1.95379 20.2703V20.3299C1.92773 22.7282 4.82309 23.9486 6.52135 22.2531L9.18634 19.5758C10.1133 18.6488 12.0426 18.6385 13.0141 19.61L19.3177 25.9513C19.5754 26.2091 19.8832 26.4115 20.222 26.5461C20.5609 26.6806 20.9237 26.7444 21.2881 26.7336H21.2963C23.6405 26.665 24.7669 23.8266 23.1091 22.1688L20.5593 19.595C19.6152 18.6509 19.5439 16.8278 20.5531 15.8186L26.8711 9.4129ZM16.8776 16.0311C16.3139 16.5748 15.5573 16.8723 14.7742 16.8582C13.9912 16.844 13.2459 16.5194 12.7022 15.9557C12.1585 15.392 11.861 14.6354 11.8751 13.8524C11.8893 13.0694 12.2139 12.324 12.7776 11.7803C13.3413 11.2366 14.0979 10.9391 14.8809 10.9533C15.6639 10.9674 16.4093 11.2921 16.953 11.8557C17.4967 12.4194 17.7942 13.176 17.78 13.9591C17.7659 14.7421 17.4413 15.4874 16.8776 16.0311Z" fill="#C7DAE8"/>
</g>
<defs>
<clipPath id="clip0_2098_8738">
<rect width="88" height="28.3844" fill="white" transform="translate(0.625)"/>
</clipPath>
</defs>
</svg>
