<svg width="151" height="67" viewBox="0 0 151 67" fill="none" xmlns="http://www.w3.org/2000/svg">
<g clip-path="url(#clip0_2086_16709)">
<g filter="url(#filter0_i_2086_16709)">
<path d="M131.908 12.4246C142.227 12.4246 150.591 20.7896 150.591 31.1068C150.591 41.4257 142.227 49.789 131.908 49.789C121.591 49.789 113.226 41.4248 113.226 31.1068C113.226 20.7896 121.591 12.4246 131.908 12.4246Z" fill="url(#paint0_linear_2086_16709)"/>
<path d="M131.908 12.4246C142.227 12.4246 150.591 20.7896 150.591 31.1068C150.591 41.4257 142.227 49.789 131.908 49.789C121.591 49.789 113.226 41.4248 113.226 31.1068C113.226 20.7896 121.591 12.4246 131.908 12.4246Z" fill="url(#paint1_angular_2086_16709)" fill-opacity="0.15" style="mix-blend-mode:difference"/>
<path d="M131.908 12.4246C142.227 12.4246 150.591 20.7896 150.591 31.1068C150.591 41.4257 142.227 49.789 131.908 49.789C121.591 49.789 113.226 41.4248 113.226 31.1068C113.226 20.7896 121.591 12.4246 131.908 12.4246Z" fill="url(#paint2_angular_2086_16709)" style="mix-blend-mode:screen"/>
</g>
<g filter="url(#filter1_i_2086_16709)">
<path d="M132.597 32.426H139.696C139.847 32.426 139.919 32.426 139.93 32.2275C139.988 31.5054 139.988 30.779 139.93 30.056C139.93 29.9156 139.86 29.8576 139.708 29.8576H125.58C125.405 29.8576 125.358 29.9156 125.358 30.0795V32.1578C125.358 32.426 125.358 32.426 125.638 32.426H132.597ZM139.137 27.4288C139.157 27.3758 139.157 27.3178 139.137 27.2657C139.018 27.0076 138.878 26.7613 138.715 26.5301C138.469 26.1349 138.18 25.7709 137.851 25.4439C137.695 25.2463 137.515 25.0689 137.313 24.9184C136.303 24.0584 135.101 23.4497 133.81 23.1437C133.159 22.9974 132.493 22.9276 131.825 22.9335H125.555C125.38 22.9335 125.357 23.0033 125.357 23.1555V27.3001C125.357 27.475 125.357 27.5221 125.579 27.5221H139.053C139.053 27.5221 139.17 27.4986 139.193 27.4288H139.136H139.137ZM139.137 34.8548C138.938 34.8329 138.738 34.8329 138.54 34.8548H125.591C125.416 34.8548 125.358 34.8548 125.358 35.0885V39.1407C125.358 39.3273 125.358 39.3744 125.591 39.3744H131.57C131.855 39.3963 132.141 39.3761 132.421 39.3164C133.289 39.2542 134.142 39.0659 134.956 38.7557C135.252 38.6531 135.538 38.5194 135.808 38.3588H135.889C137.291 37.6299 138.429 36.4849 139.147 35.0792C139.147 35.0792 139.229 34.9027 139.137 34.8564V34.8548ZM123.011 41.4753V41.4056V38.685V37.7628V35.0187C123.011 34.8665 123.011 34.8438 122.825 34.8438H120.291C120.15 34.8438 120.092 34.8438 120.092 34.6572V32.4386H122.801C122.952 32.4386 123.011 32.4386 123.011 32.2402V30.0451C123.011 29.9047 123.011 29.8702 122.825 29.8702H120.291C120.15 29.8702 120.092 29.8702 120.092 29.6836V27.6289C120.092 27.5002 120.092 27.4658 120.279 27.4658H122.789C122.964 27.4658 123.011 27.4658 123.011 27.2438V20.9503C123.011 20.7636 123.011 20.7166 123.245 20.7166H132.002C132.637 20.7418 133.269 20.8116 133.893 20.9267C135.18 21.1647 136.417 21.6245 137.548 22.2811C138.298 22.7225 138.988 23.2555 139.603 23.8692C140.065 24.3493 140.482 24.8688 140.852 25.422C141.219 25.9828 141.524 26.5822 141.764 27.2085C141.794 27.3716 141.95 27.4817 142.113 27.454H144.203C144.471 27.454 144.471 27.454 144.483 27.7113V29.6264C144.483 29.813 144.413 29.8601 144.226 29.8601H142.614C142.451 29.8601 142.404 29.8601 142.416 30.0703C142.48 30.7815 142.48 31.4953 142.416 32.2065C142.416 32.4049 142.416 32.4285 142.638 32.4285H144.482C144.564 32.5336 144.482 32.6387 144.482 32.7446C144.494 32.8799 144.494 33.017 144.482 33.1523V34.5656C144.482 34.764 144.424 34.8228 144.248 34.8228H142.042C141.888 34.7934 141.738 34.8918 141.703 35.0448C141.177 36.4109 140.337 37.6358 139.25 38.6178C138.854 38.9751 138.437 39.3114 138.001 39.6216C137.534 39.8906 137.079 40.1706 136.6 40.3925C135.718 40.7893 134.793 41.0819 133.844 41.2677C132.943 41.4291 132.029 41.5022 131.111 41.4896H123.008V41.4779L123.011 41.4753Z" fill="#292929" style="mix-blend-mode:plus-darker"/>
</g>
</g>
<g clip-path="url(#clip1_2086_16709)">
<g filter="url(#filter2_i_2086_16709)">
<path fill-rule="evenodd" clip-rule="evenodd" d="M7.89696 18.4397L0.0331842 34.3763C0.00326031 34.4356 -0.00622239 34.5025 0.00612288 34.5674C0.0184682 34.6322 0.0519938 34.6916 0.101797 34.7367L21.34 54.3718C21.4003 54.4276 21.4806 54.4588 21.5642 54.4588C21.6478 54.4588 21.7282 54.4276 21.7885 54.3718L43.0266 34.7379C43.0765 34.6928 43.11 34.6335 43.1223 34.5686C43.1347 34.5038 43.1252 34.4368 43.0953 34.3775L35.2315 18.441C35.2061 18.3874 35.1653 18.3421 35.1139 18.3104C35.0625 18.2786 35.0028 18.2618 34.9418 18.262H8.1892C8.1279 18.2613 8.0677 18.2776 8.01584 18.3092C7.96399 18.3407 7.9227 18.3861 7.89696 18.4397Z" fill="url(#paint3_linear_2086_16709)"/>
<path fill-rule="evenodd" clip-rule="evenodd" d="M7.89696 18.4397L0.0331842 34.3763C0.00326031 34.4356 -0.00622239 34.5025 0.00612288 34.5674C0.0184682 34.6322 0.0519938 34.6916 0.101797 34.7367L21.34 54.3718C21.4003 54.4276 21.4806 54.4588 21.5642 54.4588C21.6478 54.4588 21.7282 54.4276 21.7885 54.3718L43.0266 34.7379C43.0765 34.6928 43.11 34.6335 43.1223 34.5686C43.1347 34.5038 43.1252 34.4368 43.0953 34.3775L35.2315 18.441C35.2061 18.3874 35.1653 18.3421 35.1139 18.3104C35.0625 18.2786 35.0028 18.2618 34.9418 18.262H8.1892C8.1279 18.2613 8.0677 18.2776 8.01584 18.3092C7.96399 18.3407 7.9227 18.3861 7.89696 18.4397Z" fill="url(#paint4_angular_2086_16709)" fill-opacity="0.15" style="mix-blend-mode:difference"/>
<path fill-rule="evenodd" clip-rule="evenodd" d="M7.89696 18.4397L0.0331842 34.3763C0.00326031 34.4356 -0.00622239 34.5025 0.00612288 34.5674C0.0184682 34.6322 0.0519938 34.6916 0.101797 34.7367L21.34 54.3718C21.4003 54.4276 21.4806 54.4588 21.5642 54.4588C21.6478 54.4588 21.7282 54.4276 21.7885 54.3718L43.0266 34.7379C43.0765 34.6928 43.11 34.6335 43.1223 34.5686C43.1347 34.5038 43.1252 34.4368 43.0953 34.3775L35.2315 18.441C35.2061 18.3874 35.1653 18.3421 35.1139 18.3104C35.0625 18.2786 35.0028 18.2618 34.9418 18.262H8.1892C8.1279 18.2613 8.0677 18.2776 8.01584 18.3092C7.96399 18.3407 7.9227 18.3861 7.89696 18.4397Z" fill="url(#paint5_angular_2086_16709)" style="mix-blend-mode:screen"/>
</g>
<g filter="url(#filter3_i_2086_16709)">
<path fill-rule="evenodd" clip-rule="evenodd" d="M24.2927 36.0135C24.1403 36.0245 23.3525 36.0699 21.5952 36.0699C20.1976 36.0699 19.2052 36.0294 18.8571 36.0135C13.4557 35.7842 9.4241 34.8771 9.4241 33.7909C9.4241 32.7048 13.4557 31.7989 18.8571 31.5659V35.11C19.2103 35.1345 20.2217 35.1921 21.6194 35.1921C23.2966 35.1921 24.1364 35.1247 24.2876 35.1112V31.5684C29.6775 31.8001 33.7003 32.7072 33.7003 33.7909C33.7003 34.8746 29.6788 35.7818 24.2876 36.0122L24.2927 36.0135ZM24.2927 31.2018V28.0305H31.8147V23.1943H11.3351V28.0305H18.8558V31.2006C12.7429 31.4715 8.14587 32.6398 8.14587 34.0398C8.14587 35.4397 12.7429 36.6068 18.8558 36.8789V47.0416H24.2915V36.8753C30.3904 36.6043 34.9798 35.4373 34.9798 34.0386C34.9798 32.6398 30.3942 31.4728 24.2915 31.2006L24.2927 31.2018Z" fill="#292929" style="mix-blend-mode:plus-darker"/>
</g>
</g>
<g filter="url(#filter4_d_2086_16709)">
<g filter="url(#filter5_i_2086_16709)">
<path d="M78.034 61.4643C95.2158 61.4643 109.039 47.9296 109.039 31.1057C109.039 14.2819 95.2158 0.74707 78.034 0.74707C60.8522 0.74707 47.0294 14.2819 47.0294 31.1057C47.0294 47.9296 60.8522 61.4643 78.034 61.4643Z" fill="url(#paint6_linear_2086_16709)"/>
<path d="M78.034 61.4643C95.2158 61.4643 109.039 47.9296 109.039 31.1057C109.039 14.2819 95.2158 0.74707 78.034 0.74707C60.8522 0.74707 47.0294 14.2819 47.0294 31.1057C47.0294 47.9296 60.8522 61.4643 78.034 61.4643Z" fill="url(#paint7_angular_2086_16709)" fill-opacity="0.15" style="mix-blend-mode:difference"/>
<path d="M78.034 61.4643C95.2158 61.4643 109.039 47.9296 109.039 31.1057C109.039 14.2819 95.2158 0.74707 78.034 0.74707C60.8522 0.74707 47.0294 14.2819 47.0294 31.1057C47.0294 47.9296 60.8522 61.4643 78.034 61.4643Z" fill="url(#paint8_angular_2086_16709)" style="mix-blend-mode:screen"/>
</g>
<g filter="url(#filter6_i_2086_16709)">
<path d="M86.5603 35.9128C86.5603 31.4856 83.8474 29.9677 78.4216 29.3353C74.546 28.8292 73.7709 27.8174 73.7709 26.0462C73.7709 24.2751 75.0629 23.137 77.6465 23.137C79.9718 23.137 81.2638 23.8959 81.9096 25.7934C82.0389 26.1728 82.4265 26.4257 82.814 26.4257H84.8808C85.3976 26.4257 85.7852 26.0462 85.7852 25.5405V25.4139C85.2683 22.6309 82.943 20.4806 79.9718 20.2277V17.1918C79.9718 16.6858 79.5843 16.3063 78.9384 16.1797H77.0007C76.4838 16.1797 76.0963 16.5592 75.967 17.1918V20.1011C72.0914 20.6072 69.6371 23.137 69.6371 26.2994C69.6371 30.4738 72.2207 32.118 77.6465 32.7507C81.2638 33.383 82.4265 34.142 82.4265 36.166C82.4265 38.19 80.6176 39.5813 78.1633 39.5813C74.8043 39.5813 73.6416 38.1897 73.2541 36.2923C73.1251 35.7865 72.7375 35.5333 72.35 35.5333H70.1536C69.6371 35.5333 69.2495 35.9128 69.2495 36.4189V36.5455C69.766 39.7076 71.8331 41.9845 76.0963 42.6172V45.6531C76.0963 46.1588 76.4838 46.5383 77.1296 46.6649H79.0674C79.5843 46.6649 79.9718 46.2854 80.1011 45.6531V42.6172C83.9767 41.9845 86.5603 39.3282 86.5603 35.9128Z" fill="#292929" style="mix-blend-mode:plus-darker"/>
</g>
<g filter="url(#filter7_i_2086_16709)">
<path d="M71.4456 49.196C61.3691 45.6544 56.2015 34.6494 59.9481 24.9091C61.8859 19.5964 66.149 15.5486 71.4456 13.6512C71.9624 13.3983 72.2207 13.0189 72.2207 12.3862V10.6154C72.2207 10.1093 71.9624 9.72981 71.4456 9.60352C71.3163 9.60352 71.058 9.60351 70.9287 9.72981C58.6562 13.5246 51.9384 26.3008 55.814 38.3176C58.1393 45.4012 63.6944 50.8406 70.9287 53.1175C71.4456 53.3704 71.9624 53.1175 72.0914 52.6114C72.2207 52.4851 72.2207 52.3585 72.2207 52.1056V50.3345C72.2207 49.955 71.8331 49.4492 71.4456 49.196ZM85.1393 9.72981C84.6225 9.47692 84.1057 9.72981 83.9767 10.2359C83.8474 10.3625 83.8474 10.4888 83.8474 10.742V12.5128C83.8474 13.0189 84.2349 13.5246 84.6225 13.7778C94.699 17.3195 99.8665 28.3245 96.1199 38.0647C94.1821 43.3775 89.919 47.4252 84.6225 49.3226C84.1057 49.5755 83.8474 49.955 83.8474 50.5877V52.3585C83.8474 52.8646 84.1057 53.2441 84.6225 53.3704C84.7518 53.3704 85.0101 53.3704 85.1393 53.2441C97.4119 49.4492 104.13 36.6731 100.254 24.6562C97.9287 17.4461 92.2444 12.0067 85.1393 9.72981Z" fill="#292929" style="mix-blend-mode:plus-darker"/>
</g>
</g>
<defs>
<filter id="filter0_i_2086_16709" x="113.226" y="12.4246" width="37.3645" height="38.5584" filterUnits="userSpaceOnUse" color-interpolation-filters="sRGB">
<feFlood flood-opacity="0" result="BackgroundImageFix"/>
<feBlend mode="normal" in="SourceGraphic" in2="BackgroundImageFix" result="shape"/>
<feColorMatrix in="SourceAlpha" type="matrix" values="0 0 0 0 0 0 0 0 0 0 0 0 0 0 0 0 0 0 127 0" result="hardAlpha"/>
<feOffset dy="1.19393"/>
<feGaussianBlur stdDeviation="5.28248"/>
<feComposite in2="hardAlpha" operator="arithmetic" k2="-1" k3="1"/>
<feColorMatrix type="matrix" values="0 0 0 0 1 0 0 0 0 0.819452 0 0 0 0 0.819452 0 0 0 0.2 0"/>
<feBlend mode="normal" in2="shape" result="effect1_innerShadow_2086_16709"/>
</filter>
<filter id="filter1_i_2086_16709" x="120.092" y="20.7166" width="24.426" height="22.4498" filterUnits="userSpaceOnUse" color-interpolation-filters="sRGB">
<feFlood flood-opacity="0" result="BackgroundImageFix"/>
<feBlend mode="normal" in="SourceGraphic" in2="BackgroundImageFix" result="shape"/>
<feColorMatrix in="SourceAlpha" type="matrix" values="0 0 0 0 0 0 0 0 0 0 0 0 0 0 0 0 0 0 127 0" result="hardAlpha"/>
<feOffset dy="1.67538"/>
<feGaussianBlur stdDeviation="7.41263"/>
<feComposite in2="hardAlpha" operator="arithmetic" k2="-1" k3="1"/>
<feColorMatrix type="matrix" values="0 0 0 0 1 0 0 0 0 0.819452 0 0 0 0 0.819452 0 0 0 0.2 0"/>
<feBlend mode="normal" in2="shape" result="effect1_innerShadow_2086_16709"/>
</filter>
<filter id="filter2_i_2086_16709" x="0.000854492" y="18.262" width="43.1267" height="37.3907" filterUnits="userSpaceOnUse" color-interpolation-filters="sRGB">
<feFlood flood-opacity="0" result="BackgroundImageFix"/>
<feBlend mode="normal" in="SourceGraphic" in2="BackgroundImageFix" result="shape"/>
<feColorMatrix in="SourceAlpha" type="matrix" values="0 0 0 0 0 0 0 0 0 0 0 0 0 0 0 0 0 0 127 0" result="hardAlpha"/>
<feOffset dy="1.19393"/>
<feGaussianBlur stdDeviation="5.28248"/>
<feComposite in2="hardAlpha" operator="arithmetic" k2="-1" k3="1"/>
<feColorMatrix type="matrix" values="0 0 0 0 1 0 0 0 0 0.819452 0 0 0 0 0.819452 0 0 0 0.2 0"/>
<feBlend mode="normal" in2="shape" result="effect1_innerShadow_2086_16709"/>
</filter>
<filter id="filter3_i_2086_16709" x="8.14587" y="23.1943" width="26.8339" height="26.6419" filterUnits="userSpaceOnUse" color-interpolation-filters="sRGB">
<feFlood flood-opacity="0" result="BackgroundImageFix"/>
<feBlend mode="normal" in="SourceGraphic" in2="BackgroundImageFix" result="shape"/>
<feColorMatrix in="SourceAlpha" type="matrix" values="0 0 0 0 0 0 0 0 0 0 0 0 0 0 0 0 0 0 127 0" result="hardAlpha"/>
<feOffset dy="2.7947"/>
<feGaussianBlur stdDeviation="12.365"/>
<feComposite in2="hardAlpha" operator="arithmetic" k2="-1" k3="1"/>
<feColorMatrix type="matrix" values="0 0 0 0 1 0 0 0 0 0.819452 0 0 0 0 0.819452 0 0 0 0.2 0"/>
<feBlend mode="normal" in2="shape" result="effect1_innerShadow_2086_16709"/>
</filter>
<filter id="filter4_d_2086_16709" x="44.4457" y="0.74707" width="67.1766" height="65.8867" filterUnits="userSpaceOnUse" color-interpolation-filters="sRGB">
<feFlood flood-opacity="0" result="BackgroundImageFix"/>
<feColorMatrix in="SourceAlpha" type="matrix" values="0 0 0 0 0 0 0 0 0 0 0 0 0 0 0 0 0 0 127 0" result="hardAlpha"/>
<feOffset dy="2.58371"/>
<feGaussianBlur stdDeviation="1.29186"/>
<feComposite in2="hardAlpha" operator="out"/>
<feColorMatrix type="matrix" values="0 0 0 0 0 0 0 0 0 0 0 0 0 0 0 0 0 0 0.75 0"/>
<feBlend mode="normal" in2="BackgroundImageFix" result="effect1_dropShadow_2086_16709"/>
<feBlend mode="normal" in="SourceGraphic" in2="effect1_dropShadow_2086_16709" result="shape"/>
</filter>
<filter id="filter5_i_2086_16709" x="47.0294" y="0.74707" width="62.0092" height="61.9112" filterUnits="userSpaceOnUse" color-interpolation-filters="sRGB">
<feFlood flood-opacity="0" result="BackgroundImageFix"/>
<feBlend mode="normal" in="SourceGraphic" in2="BackgroundImageFix" result="shape"/>
<feColorMatrix in="SourceAlpha" type="matrix" values="0 0 0 0 0 0 0 0 0 0 0 0 0 0 0 0 0 0 127 0" result="hardAlpha"/>
<feOffset dy="1.19393"/>
<feGaussianBlur stdDeviation="5.28248"/>
<feComposite in2="hardAlpha" operator="arithmetic" k2="-1" k3="1"/>
<feColorMatrix type="matrix" values="0 0 0 0 1 0 0 0 0 0.819452 0 0 0 0 0.819452 0 0 0 0.2 0"/>
<feBlend mode="normal" in2="shape" result="effect1_innerShadow_2086_16709"/>
</filter>
<filter id="filter6_i_2086_16709" x="69.2495" y="16.1797" width="17.3108" height="31.3832" filterUnits="userSpaceOnUse" color-interpolation-filters="sRGB">
<feFlood flood-opacity="0" result="BackgroundImageFix"/>
<feBlend mode="normal" in="SourceGraphic" in2="BackgroundImageFix" result="shape"/>
<feColorMatrix in="SourceAlpha" type="matrix" values="0 0 0 0 0 0 0 0 0 0 0 0 0 0 0 0 0 0 127 0" result="hardAlpha"/>
<feOffset dy="0.897841"/>
<feGaussianBlur stdDeviation="3.97246"/>
<feComposite in2="hardAlpha" operator="arithmetic" k2="-1" k3="1"/>
<feColorMatrix type="matrix" values="0 0 0 0 1 0 0 0 0 0.819452 0 0 0 0 0.819452 0 0 0 0.2 0"/>
<feBlend mode="normal" in2="shape" result="effect1_innerShadow_2086_16709"/>
</filter>
<filter id="filter7_i_2086_16709" x="54.7175" y="9.60352" width="46.6331" height="44.6647" filterUnits="userSpaceOnUse" color-interpolation-filters="sRGB">
<feFlood flood-opacity="0" result="BackgroundImageFix"/>
<feBlend mode="normal" in="SourceGraphic" in2="BackgroundImageFix" result="shape"/>
<feColorMatrix in="SourceAlpha" type="matrix" values="0 0 0 0 0 0 0 0 0 0 0 0 0 0 0 0 0 0 127 0" result="hardAlpha"/>
<feOffset dy="0.897841"/>
<feGaussianBlur stdDeviation="3.97246"/>
<feComposite in2="hardAlpha" operator="arithmetic" k2="-1" k3="1"/>
<feColorMatrix type="matrix" values="0 0 0 0 1 0 0 0 0 0.819452 0 0 0 0 0.819452 0 0 0 0.2 0"/>
<feBlend mode="normal" in2="shape" result="effect1_innerShadow_2086_16709"/>
</filter>
<linearGradient id="paint0_linear_2086_16709" x1="113.226" y1="8.72032" x2="157.084" y2="48.4154" gradientUnits="userSpaceOnUse">
<stop stop-color="white"/>
<stop offset="0.27881" stop-color="#CCFFF9"/>
<stop offset="0.356103" stop-color="white"/>
<stop offset="0.468767" stop-color="#BDD3FF"/>
<stop offset="0.661344" stop-color="#81CCEC"/>
<stop offset="1" stop-color="#3E2EF2"/>
</linearGradient>
<radialGradient id="paint1_angular_2086_16709" cx="0" cy="0" r="1" gradientUnits="userSpaceOnUse" gradientTransform="translate(131.908 31.1068) rotate(90) scale(27.6873)">
<stop offset="0.0831428" stop-color="white"/>
<stop offset="0.164678"/>
<stop offset="0.255018" stop-color="white"/>
<stop offset="0.36838"/>
<stop offset="0.501103" stop-color="white"/>
<stop offset="0.589038"/>
<stop offset="0.702439" stop-color="white"/>
<stop offset="0.802371"/>
<stop offset="0.910457" stop-color="white"/>
<stop offset="0.99653" stop-color="#050505"/>
</radialGradient>
<radialGradient id="paint2_angular_2086_16709" cx="0" cy="0" r="1" gradientUnits="userSpaceOnUse" gradientTransform="translate(131.908 31.1068) rotate(90) scale(27.6873)">
<stop offset="0.0831428" stop-color="white"/>
<stop offset="0.164678"/>
<stop offset="0.255018" stop-color="white"/>
<stop offset="0.36838"/>
<stop offset="0.501103" stop-color="white"/>
<stop offset="0.589038"/>
<stop offset="0.702439" stop-color="white"/>
<stop offset="0.802371"/>
<stop offset="0.910457" stop-color="white"/>
<stop offset="0.99653" stop-color="#050505"/>
</radialGradient>
<linearGradient id="paint3_linear_2086_16709" x1="0.000854177" y1="14.6735" x2="42.5781" y2="60.5875" gradientUnits="userSpaceOnUse">
<stop stop-color="white"/>
<stop offset="0.27881" stop-color="#CCFFF9"/>
<stop offset="0.356103" stop-color="white"/>
<stop offset="0.468767" stop-color="#BDD3FF"/>
<stop offset="0.661344" stop-color="#81CCEC"/>
<stop offset="1" stop-color="#3E2EF2"/>
</linearGradient>
<radialGradient id="paint4_angular_2086_16709" cx="0" cy="0" r="1" gradientUnits="userSpaceOnUse" gradientTransform="translate(21.5642 36.3604) rotate(90) scale(26.8221 31.9572)">
<stop offset="0.0831428" stop-color="white"/>
<stop offset="0.164678"/>
<stop offset="0.255018" stop-color="white"/>
<stop offset="0.36838"/>
<stop offset="0.501103" stop-color="white"/>
<stop offset="0.589038"/>
<stop offset="0.702439" stop-color="white"/>
<stop offset="0.802371"/>
<stop offset="0.910457" stop-color="white"/>
<stop offset="0.99653" stop-color="#050505"/>
</radialGradient>
<radialGradient id="paint5_angular_2086_16709" cx="0" cy="0" r="1" gradientUnits="userSpaceOnUse" gradientTransform="translate(21.5642 36.3604) rotate(90) scale(26.8221 31.9572)">
<stop offset="0.0831428" stop-color="white"/>
<stop offset="0.164678"/>
<stop offset="0.255018" stop-color="white"/>
<stop offset="0.36838"/>
<stop offset="0.501103" stop-color="white"/>
<stop offset="0.589038"/>
<stop offset="0.702439" stop-color="white"/>
<stop offset="0.802371"/>
<stop offset="0.910457" stop-color="white"/>
<stop offset="0.99653" stop-color="#050505"/>
</radialGradient>
<linearGradient id="paint6_linear_2086_16709" x1="47.0294" y1="-5.27231" x2="118.432" y2="60.7281" gradientUnits="userSpaceOnUse">
<stop stop-color="white"/>
<stop offset="0.27881" stop-color="#CCFFF9"/>
<stop offset="0.356103" stop-color="white"/>
<stop offset="0.468767" stop-color="#BDD3FF"/>
<stop offset="0.661344" stop-color="#81CCEC"/>
<stop offset="1" stop-color="#3E2EF2"/>
</linearGradient>
<radialGradient id="paint7_angular_2086_16709" cx="0" cy="0" r="1" gradientUnits="userSpaceOnUse" gradientTransform="translate(78.034 31.1057) rotate(90) scale(44.9919 45.9492)">
<stop offset="0.0831428" stop-color="white"/>
<stop offset="0.164678"/>
<stop offset="0.255018" stop-color="white"/>
<stop offset="0.36838"/>
<stop offset="0.501103" stop-color="white"/>
<stop offset="0.589038"/>
<stop offset="0.702439" stop-color="white"/>
<stop offset="0.802371"/>
<stop offset="0.910457" stop-color="white"/>
<stop offset="0.99653" stop-color="#050505"/>
</radialGradient>
<radialGradient id="paint8_angular_2086_16709" cx="0" cy="0" r="1" gradientUnits="userSpaceOnUse" gradientTransform="translate(78.034 31.1057) rotate(90) scale(44.9919 45.9492)">
<stop offset="0.0831428" stop-color="white"/>
<stop offset="0.164678"/>
<stop offset="0.255018" stop-color="white"/>
<stop offset="0.36838"/>
<stop offset="0.501103" stop-color="white"/>
<stop offset="0.589038"/>
<stop offset="0.702439" stop-color="white"/>
<stop offset="0.802371"/>
<stop offset="0.910457" stop-color="white"/>
<stop offset="0.99653" stop-color="#050505"/>
</radialGradient>
<clipPath id="clip0_2086_16709">
<rect width="37.3645" height="37.3645" fill="white" transform="translate(113.226 12.4255)"/>
</clipPath>
<clipPath id="clip1_2086_16709">
<rect width="43.1281" height="36.1968" fill="white" transform="translate(0 18.2637)"/>
</clipPath>
</defs>
</svg>
