<svg width="157" height="41" viewBox="0 0 157 41" fill="none" xmlns="http://www.w3.org/2000/svg">
<path d="M41.8661 21.8324C41.4079 19.6863 39.1219 18.778 36.2166 18.5405C36.6045 16.1463 36.1674 13.6899 34.9788 11.5834C33.7902 9.47695 31.9224 7.8487 29.6888 6.97191C31.2887 7.98712 32.5869 9.42266 33.4454 11.1258C34.3038 12.8289 34.6902 14.7359 34.5636 16.6437C34.5295 17.1363 34.3188 17.5993 33.9712 17.9455C33.6236 18.2918 33.163 18.4974 32.6762 18.5237C32.598 18.5316 32.5199 18.5356 32.4378 18.5395C32.2893 18.5474 32.1399 18.5553 31.9914 18.5553C30.3664 18.5547 28.7932 17.977 27.5454 16.9228C27.3672 16.7721 27.2224 16.585 27.1206 16.3738C27.0187 16.1625 26.9621 15.9318 26.9544 15.6968C26.8997 14.0949 26.8723 11.838 27.5727 10.0263C27.8468 9.30432 28.1713 8.603 28.5438 7.92772C29.3039 6.5603 30.2046 5.50852 31.159 5.19586C37.2326 3.18927 37.3576 16.4271 37.3576 16.4271C37.3576 16.4271 39.1004 5.10879 32.6352 2.96268C30.5739 2.277 28.6356 3.83141 26.9592 6.26248C25.1052 4.70228 22.7753 3.83997 20.3649 3.82194C17.9545 3.8039 15.6122 4.63125 13.7356 6.16354C15.4108 5.26148 17.2969 4.83873 19.1915 4.94071C21.086 5.04269 22.9173 5.66555 24.4886 6.74236C24.8964 7.0264 25.1881 7.45116 25.3091 7.9372C25.4301 8.42324 25.3721 8.93728 25.1461 9.38319L24.9702 9.74038C24.5951 10.503 24.108 11.2036 23.5254 11.8182C22.9399 12.4303 22.2683 12.9514 21.5324 13.3647C21.368 13.4569 21.1831 13.5052 20.9951 13.5052C20.8072 13.5052 20.6223 13.4569 20.4578 13.3647C18.97 12.5286 16.5892 11.089 15.3602 9.51479C14.8825 8.90881 14.4467 8.27008 14.0561 7.60318C13.2745 6.24665 12.8349 4.92574 13.0459 3.93432C14.397 -2.39121 25.7459 4.17673 25.7459 4.17673C25.7459 4.17673 16.979 -3.0571 11.8892 1.51512C10.2636 2.97851 10.6124 5.45707 11.8463 8.14441C9.57362 8.97546 7.65627 10.5797 6.42155 12.6833C5.18683 14.7868 4.71131 17.2592 5.07619 19.6784C5.14925 17.7521 5.74087 15.8827 6.78707 14.2724C7.83327 12.662 9.29423 11.372 11.012 10.5418C11.456 10.3305 11.9607 10.2895 12.4323 10.4266C12.904 10.5636 13.3105 10.8693 13.5764 11.2869C13.6233 11.366 13.6741 11.4412 13.7249 11.5214C14.2306 12.3032 14.6484 13.1399 14.9705 14.0158C15.2915 14.8915 15.5134 15.8014 15.6318 16.7278C15.6652 16.9805 15.6216 17.2374 15.5069 17.4642C15.3922 17.6911 15.2119 17.8771 14.99 17.9973C13.3497 18.8819 10.4962 20.0158 8.5765 20.3413C7.831 20.4713 7.07705 20.5453 6.32079 20.5629C4.82903 20.5946 3.53754 20.3532 2.80387 19.71C-1.95765 15.5553 8.72499 8.74104 9.06985 8.52336C8.77677 8.64605 -1.36173 12.9759 0.154457 19.5834C0.642918 21.7008 2.90254 22.5735 5.77273 22.7803C5.44757 25.1376 5.91676 27.537 7.10448 29.5908C8.29221 31.6446 10.129 33.2328 12.3181 34.0985C10.7223 33.081 9.42833 31.6449 8.57348 29.9425C7.71864 28.2402 7.33483 26.3352 7.46281 24.4297C7.52533 23.5174 8.27659 22.8199 9.18122 22.7595C9.42838 22.7437 9.68238 22.7239 9.93344 22.7001C11.4789 22.556 13.0367 22.7608 14.4947 23.2997L14.5494 23.3195C14.7781 23.4037 14.9763 23.5559 15.1182 23.7561C15.2601 23.9563 15.339 24.1952 15.3446 24.4416C15.3837 26.3136 15.2821 29.4264 14.5885 31.2747C14.3234 31.995 14.0067 32.6947 13.6409 33.3683C12.9131 34.7051 12.0475 35.7282 11.1194 36.0487C5.07814 38.1553 4.74501 24.9175 4.74501 24.9175C4.74501 24.9175 3.18194 36.2634 9.67456 38.3057C11.7261 38.9518 13.6252 37.4013 15.2508 34.9782C17.1027 36.4679 19.3993 37.2764 21.7642 37.271C24.1291 37.2656 26.4221 36.4467 28.2673 34.9485C26.6264 35.8274 24.7837 36.2474 22.9292 36.1651C21.0747 36.0828 19.2754 35.5013 17.7166 34.4805C17.3032 34.2033 17.0039 33.783 16.8748 33.2982C16.7456 32.8135 16.7955 32.2977 17.0152 31.8476L17.2506 31.3528C17.5933 30.6172 18.0417 29.937 18.5812 29.3344C19.1195 28.7305 19.7376 28.2048 20.4178 27.772C20.5951 27.6599 20.7985 27.5968 21.0075 27.5892C21.2164 27.5815 21.4237 27.6296 21.6086 27.7285C23.159 28.5527 25.6414 29.9844 26.8948 31.5507C27.3769 32.1456 27.8176 32.7738 28.2136 33.4307C28.9951 34.7555 29.4318 36.0398 29.2394 37.0194C27.9831 43.3647 16.5335 36.9758 16.5335 36.9758C16.5335 36.9758 25.4147 44.0712 30.4342 39.4188C32.0275 37.9346 31.6514 35.4927 30.4029 32.84C32.6233 31.9728 34.4839 30.3622 35.6755 28.2759C36.8671 26.1896 37.3179 23.7531 36.9532 21.3713C36.8858 23.2606 36.3191 25.0969 35.3122 26.6887C34.3052 28.2804 32.8949 29.5693 31.2284 30.4208C30.7809 30.6439 30.2684 30.6943 29.7869 30.5624C29.3053 30.4306 28.8877 30.1255 28.6122 29.7044L28.5731 29.648C28.0363 28.8286 27.6033 27.944 27.2846 27.0151C26.9655 26.0851 26.7656 25.1174 26.6896 24.1358C26.6709 23.9148 26.7171 23.693 26.8222 23.4984C26.9273 23.3037 27.0868 23.1448 27.2806 23.0415C28.8125 22.2282 31.4081 21.2684 33.3376 20.9637C34.0901 20.8421 34.85 20.773 35.6118 20.7569C37.1476 20.741 38.4742 21.0032 39.2186 21.6691C43.86 25.8456 33.3854 32.3759 32.7983 32.742C33.3776 32.5075 43.2563 28.3677 41.8661 21.8324ZM22.4253 21.3377L21 22.1728L19.5718 21.3367V19.6665L21 18.8294L22.4293 19.6665L22.4253 21.3377Z" fill="white"/>
<path d="M74 23.0417C74 16.51 77.9104 12 83.5383 12C89.2889 12 92.9195 16.1682 92.9195 22.6624V24.2213L78.497 24.2671C78.8458 27.931 80.6285 29.7901 83.7722 29.7901C86.3676 29.7901 88.0737 28.6938 88.618 26.7097H93C92.1872 31.2656 88.6947 34 83.6955 34C77.9948 33.9958 74 29.49 74 23.0417ZM78.6005 20.9576H88.2155C88.2155 18.0898 86.3945 16.1933 83.5613 16.1933C80.7282 16.1933 79.0644 17.8606 78.6005 20.9742V20.9576Z" fill="white"/>
<path d="M96.1116 33.1687L102.814 23.3781L93 10H98.6032L106.012 19.9986L110.149 13.1995H115.553L108.924 23.3021L119 38H113.486L105.688 26.5816L101.586 33.1727L96.1116 33.1687Z" fill="white"/>
<path d="M138 12V32.4519H133.364L132.994 29.7277C131.778 31.6665 129.137 33 126.427 33C121.754 33 119 29.8177 119 24.8192V12.0164H124.002V23.0195C124.002 26.9094 125.519 28.4679 128.309 28.4679C131.465 28.4679 132.986 26.6108 132.986 22.7413V12H138Z" fill="white"/>
<path d="M144.834 26.1375C144.875 27.9542 146.207 29.0917 148.543 29.0917C150.88 29.0917 152.207 28.1208 152.207 26.5917C152.207 25.55 151.663 24.7792 149.833 24.3583L146.124 23.4708C142.415 22.6375 140.635 20.8625 140.635 17.5333C140.635 13.4417 144.064 11 148.803 11C153.427 11 156.555 13.6958 156.596 17.7417H151.75C151.708 15.9708 150.542 14.825 148.584 14.825C146.627 14.825 145.415 15.7542 145.415 17.325C145.415 18.5042 146.334 19.2667 148.082 19.6833L151.791 20.5708C155.253 21.3708 157 22.9708 157 26.1708C157 30.3875 153.46 33 148.374 33C143.289 33 140 30.225 140 26.1292L144.834 26.1375Z" fill="white"/>
<path d="M55 30H51V33H55V30Z" fill="white" stroke="white" stroke-width="0.14" stroke-miterlimit="10"/>
<path d="M70 21.5741V29H65.4028V21.7443C65.4177 20.3094 64.9554 18.9209 64.1082 17.8564C63.261 16.7919 62.0914 16.1298 60.8332 16.0024H60.1353C58.8777 16.1309 57.7091 16.7935 56.8628 17.8578C56.0164 18.9222 55.5546 20.3101 55.5696 21.7443V29H51V21.5741C51.0506 18.75 52.0738 16.061 53.8499 14.0841C55.626 12.1072 58.0134 11 60.5 11C62.9866 11 65.3741 12.1072 67.1501 14.0841C68.9262 16.061 69.9494 18.75 70 21.5741Z" fill="white" stroke="white" stroke-width="0.14" stroke-miterlimit="10"/>
<path d="M70 30H66V33H70V30Z" fill="white" stroke="white" stroke-width="0.14" stroke-miterlimit="10"/>
</svg>
