<svg width="61" height="38" viewBox="0 0 61 38" fill="none" xmlns="http://www.w3.org/2000/svg">
<g filter="url(#filter0_i_2098_8728)">
<rect width="47" height="26" transform="translate(7 3)" fill="#2D3A49"/>
<g filter="url(#filter1_d_2098_8728)">
<path d="M18.0498 11.0469V21H16.751V11.0469H18.0498ZM21.2491 11.0469V12.127H13.5586V11.0469H21.2491ZM24.78 21.1367C24.265 21.1367 23.7979 21.0501 23.3786 20.877C22.9639 20.6992 22.6061 20.4508 22.3054 20.1318C22.0091 19.8128 21.7813 19.4346 21.6218 18.9971C21.4623 18.5596 21.3825 18.0811 21.3825 17.5615V17.2744C21.3825 16.6729 21.4714 16.1374 21.6491 15.668C21.8268 15.194 22.0684 14.793 22.3737 14.4648C22.679 14.1367 23.0254 13.8883 23.4128 13.7197C23.8001 13.5511 24.2012 13.4668 24.6159 13.4668C25.1445 13.4668 25.6003 13.5579 25.9831 13.7402C26.3705 13.9225 26.6872 14.1777 26.9333 14.5059C27.1794 14.8294 27.3617 15.2122 27.4802 15.6543C27.5986 16.0918 27.6579 16.5703 27.6579 17.0898V17.6572H22.1345V16.625H26.3932V16.5293C26.375 16.2012 26.3067 15.8822 26.1882 15.5723C26.0742 15.2624 25.8919 15.0072 25.6413 14.8066C25.3906 14.6061 25.0488 14.5059 24.6159 14.5059C24.3288 14.5059 24.0645 14.5674 23.8229 14.6904C23.5814 14.8089 23.374 14.9867 23.2009 15.2236C23.0277 15.4606 22.8932 15.75 22.7975 16.0918C22.7018 16.4336 22.654 16.8278 22.654 17.2744V17.5615C22.654 17.9124 22.7018 18.2428 22.7975 18.5527C22.8978 18.8581 23.0414 19.127 23.2282 19.3594C23.4196 19.5918 23.6498 19.7741 23.9186 19.9062C24.1921 20.0384 24.502 20.1045 24.8483 20.1045C25.2949 20.1045 25.6732 20.0133 25.9831 19.8311C26.293 19.6488 26.5641 19.4049 26.7966 19.0996L27.5622 19.708C27.4027 19.9495 27.1999 20.1797 26.9538 20.3984C26.7077 20.6172 26.4046 20.7949 26.0446 20.9316C25.6891 21.0684 25.2676 21.1367 24.78 21.1367ZM33.3558 19.7354V15.9277C33.3558 15.6361 33.2965 15.3831 33.178 15.1689C33.0641 14.9502 32.8909 14.7816 32.6585 14.6631C32.4261 14.5446 32.139 14.4854 31.7972 14.4854C31.4782 14.4854 31.1979 14.54 30.9564 14.6494C30.7194 14.7588 30.5325 14.9023 30.3958 15.0801C30.2637 15.2578 30.1976 15.4492 30.1976 15.6543H28.9329C28.9329 15.39 29.0013 15.1279 29.138 14.8682C29.2747 14.6084 29.4707 14.3737 29.7259 14.1641C29.9857 13.9499 30.2956 13.7812 30.6556 13.6582C31.0202 13.5306 31.4258 13.4668 31.8724 13.4668C32.4101 13.4668 32.8841 13.5579 33.2943 13.7402C33.709 13.9225 34.0325 14.1982 34.265 14.5674C34.5019 14.932 34.6204 15.39 34.6204 15.9414V19.3867C34.6204 19.6328 34.6409 19.8949 34.682 20.1729C34.7275 20.4508 34.7936 20.6901 34.8802 20.8906V21H33.5609C33.4971 20.8542 33.4469 20.6605 33.4105 20.4189C33.374 20.1729 33.3558 19.945 33.3558 19.7354ZM33.5745 16.5156L33.5882 17.4043H32.3099C31.9499 17.4043 31.6286 17.4339 31.346 17.4932C31.0635 17.5479 30.8265 17.6322 30.6351 17.7461C30.4437 17.86 30.2978 18.0036 30.1976 18.1768C30.0973 18.3454 30.0472 18.5436 30.0472 18.7715C30.0472 19.0039 30.0996 19.2158 30.2044 19.4072C30.3092 19.5986 30.4665 19.7513 30.6761 19.8652C30.8903 19.9746 31.1523 20.0293 31.4622 20.0293C31.8496 20.0293 32.1914 19.9473 32.4876 19.7832C32.7838 19.6191 33.0185 19.4186 33.1917 19.1816C33.3695 18.9447 33.4652 18.7145 33.4788 18.4912L34.0189 19.0996C33.987 19.291 33.9004 19.5029 33.7591 19.7354C33.6178 19.9678 33.4287 20.1911 33.1917 20.4053C32.9593 20.6149 32.6813 20.7904 32.3577 20.9316C32.0387 21.0684 31.6787 21.1367 31.2777 21.1367C30.7764 21.1367 30.3366 21.0387 29.9583 20.8428C29.5846 20.6468 29.293 20.3848 29.0833 20.0566C28.8782 19.724 28.7757 19.3525 28.7757 18.9424C28.7757 18.5459 28.8532 18.1973 29.0081 17.8965C29.1631 17.5911 29.3864 17.3382 29.678 17.1377C29.9697 16.9326 30.3206 16.7777 30.7308 16.6729C31.1409 16.568 31.5989 16.5156 32.1048 16.5156H33.5745ZM37.7275 15.0732V21H36.456V13.6035H37.6591L37.7275 15.0732ZM37.4677 17.0215L36.8798 17.001C36.8844 16.4951 36.9505 16.028 37.0781 15.5996C37.2057 15.1667 37.3948 14.7907 37.6455 14.4717C37.8961 14.1527 38.2083 13.9066 38.582 13.7334C38.9557 13.5557 39.3886 13.4668 39.8808 13.4668C40.2272 13.4668 40.5462 13.5169 40.8379 13.6172C41.1295 13.7129 41.3824 13.8656 41.5966 14.0752C41.8108 14.2848 41.9772 14.5537 42.0957 14.8818C42.2142 15.21 42.2734 15.6064 42.2734 16.0713V21H41.0087V16.1328C41.0087 15.7454 40.9427 15.4355 40.8105 15.2031C40.6829 14.9707 40.5006 14.8021 40.2636 14.6973C40.0267 14.5879 39.7487 14.5332 39.4296 14.5332C39.0559 14.5332 38.7438 14.5993 38.4931 14.7314C38.2425 14.8636 38.042 15.0459 37.8916 15.2783C37.7412 15.5107 37.6318 15.7773 37.5634 16.0781C37.4996 16.3743 37.4677 16.6888 37.4677 17.0215ZM42.2597 16.3242L41.4121 16.584C41.4166 16.1784 41.4827 15.7887 41.6103 15.415C41.7425 15.0413 41.9316 14.7087 42.1777 14.417C42.4283 14.1253 42.736 13.8952 43.1005 13.7266C43.4651 13.5534 43.8821 13.4668 44.3515 13.4668C44.748 13.4668 45.0989 13.5192 45.4043 13.624C45.7142 13.7288 45.9739 13.8906 46.1836 14.1094C46.3977 14.3236 46.5595 14.5993 46.6689 14.9365C46.7783 15.2738 46.833 15.6748 46.833 16.1396V21H45.5615V16.126C45.5615 15.7113 45.4954 15.39 45.3632 15.1621C45.2356 14.9297 45.0533 14.7679 44.8164 14.6768C44.5839 14.5811 44.3059 14.5332 43.9824 14.5332C43.7044 14.5332 43.4583 14.5811 43.2441 14.6768C43.0299 14.7725 42.8499 14.9046 42.7041 15.0732C42.5582 15.2373 42.4466 15.4264 42.3691 15.6406C42.2962 15.8548 42.2597 16.0827 42.2597 16.3242Z" fill="#FFB82F"/>
</g>
</g>
<defs>
<filter id="filter0_i_2098_8728" x="7" y="1" width="47" height="28" filterUnits="userSpaceOnUse" color-interpolation-filters="sRGB">
<feFlood flood-opacity="0" result="BackgroundImageFix"/>
<feBlend mode="normal" in="SourceGraphic" in2="BackgroundImageFix" result="shape"/>
<feColorMatrix in="SourceAlpha" type="matrix" values="0 0 0 0 0 0 0 0 0 0 0 0 0 0 0 0 0 0 127 0" result="hardAlpha"/>
<feOffset dy="-2"/>
<feGaussianBlur stdDeviation="1.5"/>
<feComposite in2="hardAlpha" operator="arithmetic" k2="-1" k3="1"/>
<feColorMatrix type="matrix" values="0 0 0 0 0 0 0 0 0 0 0 0 0 0 0 0 0 0 0.44 0"/>
<feBlend mode="normal" in2="shape" result="effect1_innerShadow_2098_8728"/>
</filter>
<filter id="filter1_d_2098_8728" x="0.158594" y="0.646875" width="60.0744" height="36.8898" filterUnits="userSpaceOnUse" color-interpolation-filters="sRGB">
<feFlood flood-opacity="0" result="BackgroundImageFix"/>
<feColorMatrix in="SourceAlpha" type="matrix" values="0 0 0 0 0 0 0 0 0 0 0 0 0 0 0 0 0 0 127 0" result="hardAlpha"/>
<feOffset dy="3"/>
<feGaussianBlur stdDeviation="6.7"/>
<feComposite in2="hardAlpha" operator="out"/>
<feColorMatrix type="matrix" values="0 0 0 0 0 0 0 0 0 0 0 0 0 0 0 0 0 0 0.85 0"/>
<feBlend mode="normal" in2="BackgroundImageFix" result="effect1_dropShadow_2098_8728"/>
<feBlend mode="normal" in="SourceGraphic" in2="effect1_dropShadow_2098_8728" result="shape"/>
</filter>
</defs>
</svg>
